<?xml version="1.0"?>
<svg width="640" height="480" xmlns="http://www.w3.org/2000/svg" xmlns:svg="http://www.w3.org/2000/svg">
 <!-- Created with SVG-edit - https://github.com/SVG-Edit/svgedit-->
 <g class="layer">
  <title>Layer 1</title>
  <path d="m304.721775,193.829524c-1.002352,0 -1.829671,0.001031 -2.815049,0c-1.411455,-0.001488 -2.191853,-0.006898 -3.100792,-0.07978c-1.109024,-0.088926 -2.477096,-0.284698 -3.278185,-0.411594c-0.883692,-0.139982 -1.846235,-0.309634 -2.885895,-0.510224c-1.119369,-0.215975 -2.313837,-0.465102 -3.581474,-0.749529c-1.344576,-0.301688 -4.247267,-1.012469 -5.801272,-1.422609c-1.618705,-0.427216 -3.286547,-0.889325 -4.995449,-1.377741c-1.744781,-0.498677 -3.511146,-1.019874 -5.290537,-1.557232c-1.786681,-0.539556 -5.334081,-1.643064 -7.076878,-2.200947c-1.718622,-0.550139 -3.406208,-1.102257 -5.056914,-1.661931c-1.617508,-0.548415 -3.192955,-1.100161 -4.719676,-1.661931c-1.485,-0.54642 -4.292169,-1.652244 -5.607477,-2.216652c-1.281127,-0.549751 -2.528538,-1.120549 -3.760635,-1.708457c-1.241496,-0.592388 -2.494874,-1.217658 -3.781701,-1.868016c-1.337822,-0.67614 -4.213425,-2.147879 -5.778437,-2.942902c-1.630998,-0.828531 -3.3032,-1.674543 -4.986658,-2.531122c-1.670647,-0.850053 -3.300966,-1.68232 -4.860207,-2.49124c-1.468061,-0.761617 -4.013466,-2.111311 -5.03583,-2.696395c-0.887891,-0.508128 -1.657871,-0.982511 -2.315052,-1.467478c-0.621248,-0.458458 -1.192467,-0.965555 -1.745942,-1.527326c-0.600075,-0.609057 -1.939005,-2.152967 -2.746561,-3.105775c-0.902507,-1.064844 -1.874502,-2.232426 -2.889415,-3.49338c-1.063943,-1.321849 -2.143056,-2.701349 -3.205587,-4.131566c-1.068821,-1.438704 -3.06645,-4.340372 -3.950124,-5.780006c-0.856747,-1.39578 -1.631284,-2.780908 -2.344909,-4.143197c-0.693202,-1.323303 -1.325779,-2.628298 -1.923352,-3.903875c-0.581064,-1.24032 -1.659354,-3.634858 -2.180775,-4.781747c-0.507519,-1.11628 -1.004318,-2.202418 -1.480711,-3.264032c-0.464636,-1.035394 -0.912548,-2.048395 -1.333176,-3.04466c-0.411444,-0.97449 -1.163199,-2.882176 -1.493594,-3.821703c-0.325249,-0.924913 -0.619587,-1.846064 -0.878242,-2.765456c-0.256529,-0.911819 -0.480128,-1.826655 -0.667473,-2.745507c-0.18738,-0.919012 -0.467477,-2.784374 -0.562463,-3.732144c-0.095557,-0.953585 -0.15763,-1.913147 -0.200227,-2.873486c-0.042472,-0.957567 -0.062806,-1.91007 -0.073776,-2.853537c-0.010828,-0.931202 -0.012936,-2.74385 -0.009756,-3.620048c0.003127,-0.859596 0.010953,-1.708431 0.049172,-2.551071c0.038255,-0.843392 0.103777,-1.693131 0.217809,-2.551062c0.116731,-0.878134 0.496012,-2.70484 0.770124,-3.657909c0.284296,-0.988496 0.630397,-1.992918 1.029297,-3.00477c0.40578,-1.029299 0.862233,-2.054185 1.366536,-3.064609c0.504428,-1.010685 1.625012,-2.954077 2.23797,-3.871001c0.606758,-0.907643 1.258006,-1.782928 1.944419,-2.634164c0.691112,-0.85706 1.427358,-1.697595 2.197356,-2.534444c0.786544,-0.854829 2.478043,-2.587791 3.37753,-3.48119c0.925592,-0.919325 1.886759,-1.851862 2.885913,-2.790384c1.019166,-0.957321 2.07162,-1.916705 3.159899,-2.870155c1.102216,-0.965648 3.395058,-2.868456 4.584237,-3.79604c1.193432,-0.930902 2.409395,-1.837006 3.639437,-2.718918c1.222878,-0.876773 2.452385,-1.723457 3.681588,-2.539431c1.209709,-0.803037 3.593195,-2.306191 4.757145,-3.004402c1.135986,-0.681436 2.261127,-1.330391 3.374207,-1.957758c1.098964,-0.619408 2.196124,-1.221305 3.289888,-1.818152c1.093639,-0.596787 3.301038,-1.797247 4.418352,-2.412572c1.127874,-0.621141 2.26077,-1.249973 3.400544,-1.876317c1.140525,-0.626753 2.280442,-1.249039 3.421628,-1.85638c1.132127,-0.602523 3.376136,-1.752822 4.485678,-2.289585c1.088904,-0.526775 2.165248,-1.02462 3.224903,-1.495741c1.033389,-0.459443 2.046355,-0.89091 3.035199,-1.296304c0.956664,-0.392195 2.78035,-1.101555 3.643547,-1.41818c0.827819,-0.303645 1.62864,-0.583182 2.408144,-0.830966c0.753471,-0.239508 1.491557,-0.452431 2.218423,-0.631538c0.711303,-0.175269 2.122133,-0.441768 2.825806,-0.532185c0.698545,-0.089758 1.394588,-0.148951 2.083181,-0.189462c0.678408,-0.039911 1.345791,-0.05937 1.99888,-0.069801c0.636579,-0.010169 1.851345,-0.011712 2.425315,-0.009417c0.55176,0.002206 1.082758,0.007143 1.593136,0.034903c0.492492,0.026788 0.96885,0.07147 1.424517,0.154559c0.445536,0.081242 1.296083,0.34788 1.691874,0.547329c0.404529,0.203857 0.795121,0.466535 1.166308,0.782771c0.394362,0.335982 0.774197,0.73991 1.145224,1.201576c0.401527,0.499616 1.197881,1.704628 1.603089,2.408692c0.438871,0.762564 0.877063,1.605296 1.317363,2.527795c0.473928,0.992921 0.947194,2.074697 1.422748,3.245753c0.508824,1.252974 1.537174,4.050692 2.05997,5.595354c0.54715,1.616619 1.082311,3.292396 1.60718,5.002413c0.527103,1.717269 1.029154,3.425624 1.501795,5.102129c0.456113,1.617891 1.246767,4.601697 1.567371,5.932177c0.297071,1.23278 0.553726,2.400962 0.776359,3.531604c0.2199,1.116728 0.416625,2.252189 0.607758,3.431884c0.202586,1.250388 0.628807,4.080045 0.874133,5.704859c0.265231,1.756656 0.546864,3.621899 0.841363,5.572451c0.303879,2.012605 0.613601,4.063975 0.925663,6.130866c0.310901,2.059139 0.915318,6.061044 1.202026,7.961579c0.275344,1.825142 0.53936,3.577124 0.790404,5.258353c0.240752,1.612346 0.469747,3.158226 0.685055,4.640108c0.206231,1.41949 0.5816,4.081465 0.749593,5.329257c0.161347,1.198579 0.311294,2.355316 0.45145,3.476761c0.136511,1.092257 0.265052,2.162604 0.388162,3.217498c0.122038,1.045782 0.356429,3.137744 0.473856,4.195276c0.118321,1.065309 0.236857,2.135275 0.363611,3.205859c0.126576,1.068884 0.258941,2.132308 0.405744,3.185926c0.145266,1.042646 0.473642,3.077221 0.660433,4.062691c0.18336,0.967499 0.382694,1.915302 0.577883,2.848549c0.192401,0.919993 0.385053,1.827881 0.556799,2.728889c0.170138,0.892453 0.450628,2.668061 0.546864,3.555053c0.095772,0.882884 0.160168,1.762877 0.212521,2.635821c0.051817,0.863611 0.088017,1.716622 0.12822,2.556058c0.039452,0.823984 0.132472,2.416938 0.202979,3.181108c0.068648,0.744153 0.154164,1.467884 0.251187,2.172156c0.094736,0.687687 0.201585,1.358062 0.314403,2.012596c0.110495,0.641043 0.345065,1.88313 0.463136,2.48698c0.116177,0.59423 0.233533,1.179365 0.351283,1.756673c0.116463,0.5709 0.233891,1.136086 0.351318,1.696825c0.116749,0.557561 0.351175,1.666936 0.468389,2.22071c0.116999,0.552709 0.233712,1.103237 0.351283,1.6503c0.116642,0.542802 0.23339,1.080059 0.351318,1.610419c0.116284,0.522921 0.349889,1.540901 0.468389,2.033459c0.115712,0.480977 0.232211,0.948496 0.351283,1.401004c0.115212,0.437917 0.231568,0.858996 0.351318,1.26141c0.114533,0.384951 0.348388,1.09284 0.468174,1.413565c0.113032,0.302652 0.228816,0.585862 0.339025,0.854228c0.104849,0.255315 0.207053,0.498441 0.296821,0.734584c0.086588,0.227775 0.227494,0.673841 0.276166,0.896138c0.048065,0.219491 0.081263,0.438272 0.112425,0.653148c0.030483,0.210227 0.05632,0.415567 0.091341,0.61325c0.033806,0.190852 0.127255,0.545795 0.197512,0.704103c0.067469,0.152036 0.150126,0.290311 0.238858,0.415483c0.084051,0.118545 0.173211,0.222974 0.259978,0.315771c0.078905,0.084378 0.217809,0.216042 0.270698,0.266084c0.042347,0.040084 0.075331,0.071293 0.100096,0.094741c0.017761,0.016805 0.029696,0.028047 0.036915,0.034894c0.003681,0.0035 0.005253,0.004987 0.005432,0.004987c0.001394,0 0.005074,0 0.012329,0c0.0119,0 0.029661,0 0.054426,0c0.032984,0 0.12822,0.000473 0.192258,-0.000186c0.073366,-0.000744 0.153985,-0.002773 0.238858,-0.011631c0.087731,-0.009163 0.17632,-0.023838 0.259978,-0.051513c0.082049,-0.027134 0.22392,-0.117041 0.271092,-0.183008c0.052246,-0.073034 0.088053,-0.173591 0.124682,-0.295822c0.044777,-0.149483 0.088196,-0.334046 0.145802,-0.555076c0.068684,-0.263565 0.259049,-0.934752 0.39052,-1.349305c0.149197,-0.470461 0.325481,-0.993112 0.52696,-1.567207c0.219882,-0.626622 0.46603,-1.302272 0.737729,-2.025902c0.29021,-0.77291 0.946605,-2.455349 1.311288,-3.363186c0.383052,-0.953568 0.790975,-1.950095 1.217267,-2.991473c0.444517,-1.085909 0.908332,-2.215469 1.385869,-3.390354c0.49519,-1.218283 1.524631,-3.788576 2.055271,-5.139233c0.543648,-1.383759 1.090298,-2.793267 1.64406,-4.216333c0.555548,-1.427698 1.109274,-2.850494 1.665144,-4.256197c0.546436,-1.3819 1.618651,-4.028507 2.146612,-5.279959c0.522814,-1.23923 1.071573,-2.500116 1.652851,-3.825769c0.627449,-1.430978 1.323796,-3.00422 2.095509,-4.763091c0.869415,-1.981523 2.951595,-6.776406 4.18648,-9.654161c1.357173,-3.162723 2.803864,-6.557481 4.320954,-10.126143c1.566584,-3.685094 3.154432,-7.431938 4.742493,-11.183143c1.565798,-3.698678 4.531724,-10.714465 5.890862,-13.929385c1.270121,-3.004398 2.45594,-5.809372 3.562141,-8.425987c1.031263,-2.439347 1.992269,-4.712508 2.887664,-6.830539c0.834537,-1.974017 2.338656,-5.534615 3.020172,-7.143166c0.640992,-1.512896 1.249394,-2.944635 1.842572,-4.306061c0.571308,-1.311275 1.138077,-2.583437 1.716067,-3.827435c0.575846,-1.239314 1.804084,-3.74085 2.471378,-5.026415c0.681552,-1.313058 1.392015,-2.631484 2.121847,-3.943765c0.724614,-1.302864 1.454839,-2.575386 2.185063,-3.804159c0.703316,-1.183516 2.050197,-3.340477 2.68565,-4.289629c0.587746,-0.877922 1.155123,-1.67852 1.705561,-2.408139c0.514524,-0.682019 1.019934,-1.308857 1.51584,-1.889618c0.473999,-0.555118 1.418067,-1.58301 1.889386,-2.073534c0.465494,-0.484459 0.933847,-0.955551 1.405202,-1.412643c0.465494,-0.451412 0.933811,-0.889292 1.405166,-1.312927c0.46553,-0.418395 1.402236,-1.216483 1.873412,-1.595267c0.464136,-0.373125 0.928558,-0.730278 1.392873,-1.068622c0.453451,-0.330429 0.903722,-0.641407 1.35074,-0.929021c0.432153,-0.278058 1.273551,-0.765531 1.680975,-0.9702c0.389091,-0.195447 0.770284,-0.365082 1.141686,-0.510212c0.35482,-0.138655 0.700886,-0.254829 1.036337,-0.350669c0.320478,-0.091567 0.930202,-0.22515 1.218018,-0.27108c0.27588,-0.044023 0.543469,-0.074344 0.802732,-0.094729c0.251687,-0.019789 0.498014,-0.029704 0.73948,-0.034898c0.237857,-0.005118 0.707854,-0.004987 0.942245,-0.004987c0.23557,0 0.473463,0 0.714894,0c0.246112,0 0.498049,0 0.757026,0c0.267196,0 0.830821,-0.000533 1.12925,0.000186c0.308936,0.000744 0.627306,0.002705 0.953752,0.011631c0.333629,0.009121 0.673226,0.024379 1.017004,0.051521c0.347959,0.027477 1.049881,0.115189 1.400306,0.182628c0.355428,0.068402 0.715323,0.157209 1.078505,0.272555c0.377941,0.120029 0.765674,0.270197 1.16277,0.452046c0.421432,0.192995 1.314433,0.685485 1.789861,0.984418c0.503839,0.316794 1.018541,0.66838 1.543964,1.045355c0.541504,0.388522 1.084795,0.798925 1.628264,1.224843c0.547936,0.429409 1.620402,1.311782 2.139,1.757953c0.513416,0.441713 1.015003,0.888353 1.505298,1.341182c0.489044,0.451658 0.96944,0.911755 1.442081,1.381063c0.475071,0.471717 1.4136,1.448256 1.878844,1.955171c0.471605,0.513863 0.94078,1.043251 1.405202,1.59047c0.472427,0.556648 0.941459,1.132747 1.405166,1.730067c0.473213,0.609577 1.410741,1.896173 1.873197,2.575073c0.471355,0.691985 0.933168,1.404981 1.380616,2.137245c0.4512,0.738388 0.885389,1.491142 1.296279,2.256901c0.41039,0.764774 1.158303,2.313038 1.488895,3.093222c0.329877,0.778451 0.631808,1.572727 0.915157,2.384872c0.289424,0.829486 0.562124,1.690186 0.830821,2.584304c0.279561,0.930284 0.843793,2.932704 1.139149,4.011901c0.307435,1.123398 0.617192,2.282324 0.916908,3.468452c0.303039,1.199306 0.592606,2.404766 0.853656,3.608053c0.25719,1.185536 0.677121,3.476778 0.822602,4.564961c0.139727,1.045199 0.235749,2.05722 0.300359,3.038007c0.062788,0.953061 0.094199,1.884897 0.110674,2.798694c0.01626,0.900331 0.016974,2.679033 0.015402,3.565399c-0.001572,0.886358 -0.005468,1.772801 -0.024586,2.659083c-0.019119,0.886468 -0.051138,1.773173 -0.108887,2.659092c-0.057785,0.886874 -0.244004,2.660799 -0.38566,3.545636c-0.142407,0.889537 -0.323159,1.780832 -0.551546,2.670732c-0.231282,0.901193 -0.511379,1.806055 -0.846616,2.710605c-0.34217,0.923222 -1.189572,2.787688 -1.696377,3.727528c-0.520277,0.964785 -1.102091,1.929901 -1.731898,2.896749c-0.643279,0.987499 -1.336553,1.972385 -2.069136,2.956571c-0.74434,0.999967 -2.336011,2.99187 -3.173765,3.982733c-0.84222,0.996146 -1.705597,1.976181 -2.585554,2.933308c-0.87038,0.946696 -1.746979,1.861076 -2.627686,2.733876c-0.855764,0.848083 -2.534773,2.39398 -3.352158,3.078632c-0.781899,0.654932 -1.560581,1.258925 -2.332616,1.826461c-0.756633,0.556217 -1.521986,1.085292 -2.290448,1.607088c-0.774108,0.525617 -2.375964,1.595592 -3.205963,2.161809c-0.854692,0.583047 -1.728074,1.18688 -2.622433,1.804855c-0.913263,0.631052 -1.843001,1.274639 -2.79107,1.924516c-0.961399,0.659006 -2.926795,1.986003 -3.92829,2.64894c-1.004818,0.665151 -2.01296,1.323625 -3.012346,1.982673c-0.989345,0.652421 -1.962572,1.297403 -2.906997,1.942808c-0.921268,0.629581 -2.648985,1.866562 -3.44114,2.477191c-0.764352,0.589192 -1.490038,1.181326 -2.193854,1.768304c-0.694703,0.579387 -1.377471,1.165316 -2.067385,1.748355c-0.698098,0.589936 -2.158583,1.792378 -2.939767,2.402585c-0.801911,0.626403 -1.630444,1.250962 -2.473129,1.876334c-0.845866,0.627755 -1.695054,1.245975 -2.536346,1.856368c-0.826247,0.599471 -2.411592,1.744653 -3.153896,2.290329c-0.712786,0.523969 -1.396053,1.033754 -2.04455,1.54227c-0.630915,0.494721 -1.236993,0.991793 -1.812661,1.502389c-0.570379,0.505913 -1.651636,1.575998 -2.165552,2.146661c-0.519812,0.577206 -1.02022,1.180008 -1.517626,1.793224c-0.501051,0.617713 -0.994312,1.246601 -1.496507,1.873003c-0.503302,0.627823 -1.533314,1.867272 -2.071102,2.467031c-0.536501,0.598339 -1.08819,1.18131 -1.64406,1.756673c-0.55344,0.572844 -1.112061,1.13568 -1.665144,1.696825c-0.549187,0.557155 -1.626049,1.664366 -2.143896,2.220524c-0.511057,0.548872 -1.004532,1.096323 -1.480711,1.638669c-0.464887,0.529463 -0.909297,1.050186 -1.333158,1.558889c-0.408281,0.490005 -1.155695,1.418129 -1.493826,1.851397c-0.319085,0.408839 -0.614691,0.797255 -0.890535,1.163355c-0.258477,0.343024 -0.497549,0.665084 -0.721898,0.963915c-0.208161,0.277293 -0.583029,0.765877 -0.754882,0.97536c-0.157702,0.192222 -0.308007,0.36539 -0.45145,0.521856c-0.133437,0.145561 -0.262979,0.278493 -0.388162,0.402178c-0.120001,0.118562 -0.356857,0.342094 -0.473463,0.453166c-0.116034,0.110515 -0.230424,0.220455 -0.339025,0.332373c-0.106457,0.109703 -0.20716,0.219677 -0.296821,0.33239c-0.086731,0.108993 -0.227458,0.330615 -0.275987,0.443006c-0.046599,0.107945 -0.078333,0.216194 -0.100096,0.320741c-0.02062,0.099052 -0.031269,0.193422 -0.036915,0.280877c-0.005146,0.079509 -0.006718,0.211089 -0.00486,0.261283c0.001537,0.04142 0.006218,0.078038 0.024586,0.106373c0.019869,0.030684 0.058285,0.0577 0.108887,0.086424c0.064717,0.036754 0.25619,0.126846 0.385482,0.187048c0.153271,0.071377 0.332021,0.152273 0.539217,0.237665c0.23339,0.096195 0.49687,0.196668 0.79219,0.297479c0.324445,0.110751 1.075646,0.331223 1.50394,0.438205c0.460026,0.11491 0.954467,0.224478 1.480711,0.332373c0.555334,0.113862 1.140864,0.223853 1.754733,0.33239c0.639849,0.113135 1.996879,0.333759 2.711808,0.443378c0.740195,0.113507 1.508978,0.226558 2.30803,0.344004c0.83175,0.122248 1.698842,0.248806 2.6031,0.383919c0.944353,0.141098 2.961673,0.452355 4.038356,0.625253c1.121674,0.180117 2.285016,0.371679 3.488382,0.570038c1.240889,0.204546 2.516691,0.415905 3.825621,0.629868c1.339091,0.218899 4.099392,0.661178 5.516923,0.881565c1.442796,0.224309 2.914144,0.448264 4.415797,0.676411c1.534351,0.233117 3.104044,0.470444 4.710903,0.716292c1.646918,0.251985 5.069547,0.784102 6.848509,1.068614c1.823024,0.291562 3.685608,0.595617 5.583892,0.914076c1.932018,0.324123 3.893018,0.661347 5.878926,1.013771c2.009529,0.356616 6.080154,1.109053 8.133889,1.506818c2.065027,0.399946 4.136343,0.814837 6.210947,1.246449c2.079285,0.432592 4.157642,0.880619 6.231996,1.34616c2.072567,0.465136 6.191578,1.439668 8.232269,1.949638c2.026575,0.506437 4.027849,1.026433 5.998391,1.555559c1.938594,0.520554 3.83459,1.046873 5.682201,1.575508c1.798045,0.514451 5.209703,1.530673 6.813416,2.029046c1.543856,0.479777 3.030143,0.957102 4.464969,1.435898c1.396625,0.466049 2.756299,0.93722 4.085598,1.415965c1.312432,0.472676 3.897914,1.451231 5.18358,1.959799c1.287417,0.509261 2.568079,1.032232 3.839665,1.56719c1.266368,0.53276 2.51905,1.075528 3.755364,1.627037c1.224272,0.54615 3.610241,1.652396 4.766722,2.210735c1.13554,0.548229 2.240918,1.098284 3.312705,1.6503c1.044556,0.537984 2.05184,1.074446 3.017671,1.610419c0.932596,0.517528 2.663422,1.534713 3.456363,2.03383c0.758849,0.477646 1.475565,0.953399 2.156939,1.424266c0.659718,0.455905 1.291491,0.912216 1.904037,1.364453c0.602112,0.444527 1.778998,1.332855 2.363063,1.778634c0.586924,0.447976 1.176707,0.904169 1.756484,1.387715c0.591391,0.493234 1.18096,1.017524 1.756484,1.587139c0.596001,0.589886 1.768491,1.927847 2.3418,2.682735c0.596752,0.785759 1.173277,1.62396 1.744155,2.494554c0.581135,0.886232 1.144688,1.796013 1.702059,2.713927c0.55587,0.915394 1.628657,2.723715 2.149149,3.599566c0.508413,0.855513 1.005354,1.69194 1.480711,2.51616c0.465673,0.807466 0.913692,1.60413 1.333158,2.396516c0.412677,0.779538 1.162484,2.333389 1.494398,3.112605c0.330091,0.774973 0.632737,1.559548 0.927415,2.349973c0.297107,0.796917 0.585423,1.607815 0.885282,2.429736c0.305898,0.838523 0.965044,2.571003 1.3318,3.466431c0.376298,0.918725 0.776395,1.8516 1.180352,2.802007c0.409496,0.963408 0.823388,1.936283 1.22252,2.921685c0.400276,0.988243 1.147654,2.978658 1.478174,3.978465c0.32834,0.993128 0.625054,1.987998 0.902828,2.979859c0.275701,0.984422 0.53014,1.965699 0.776359,2.939944c0.244004,0.965419 0.712535,2.870291 0.946962,3.80582c0.230889,0.921413 0.459812,1.824449 0.677979,2.707299c0.211949,0.857779 0.41332,1.687629 0.593714,2.487893c0.172282,0.764254 0.453523,2.177769 0.551903,2.821787c0.091626,0.599962 0.15638,1.161445 0.200263,1.685194c0.040846,0.487503 0.062538,0.94241 0.073759,1.36611c0.010435,0.394722 0.010542,1.106838 0.010542,1.428358c0,0.30042 0,0.580925 0,0.842597c0,0.24392 0,0.471239 0,0.683038c0,0.197395 0.00193,0.553436 -0.000572,0.714077c-0.002323,0.149618 -0.007004,0.289567 -0.036915,0.415483c-0.028088,0.118207 -0.079262,0.229212 -0.163348,0.315771c-0.089554,0.092172 -0.382623,0.223768 -0.577883,0.266101c-0.22635,0.049095 -0.491474,0.075469 -0.790404,0.094708c-0.33345,0.021471 -0.702565,0.02989 -1.106594,0.034928c-0.439085,0.005478 -1.422748,0.00497 -1.967468,0.00497c-0.580992,0 -1.199471,0 -1.85658,0c-0.696955,0 -1.434862,0 -2.214938,0c-0.823388,0 -2.604851,0.000541 -3.5645,-0.000169c-1.00296,-0.000744 -2.045694,-0.002773 -3.124771,-0.011665c-1.111883,-0.009163 -2.253068,-0.02448 -3.419877,-0.051496c-1.18925,-0.027557 -3.620533,-0.114014 -4.855883,-0.182991c-1.250359,-0.069822 -2.517549,-0.161284 -3.801035,-0.295822c-1.307715,-0.137074 -2.638872,-0.316143 -3.990756,-0.555093c-1.387048,-0.245171 -4.249268,-0.91651 -5.725334,-1.348561c-1.525202,-0.446421 -3.081138,-0.965436 -4.679277,-1.520665c-1.648741,-0.57281 -3.337756,-1.190084 -5.079767,-1.819834c-1.792828,-0.648144 -5.54058,-1.977128 -7.503903,-2.634164c-2.010172,-0.672725 -4.07134,-1.334461 -6.174032,-1.994304c-2.134319,-0.669784 -4.300621,-1.331959 -6.490222,-1.994338c-2.205504,-0.66718 -6.648496,-1.993696 -8.871796,-2.658898c-2.215546,-0.662869 -4.415082,-1.322205 -6.588567,-1.982673c-2.142395,-0.651018 -4.243765,-1.296778 -6.293497,-1.942808c-1.995592,-0.628972 -5.77976,-1.866021 -7.552468,-2.477005c-1.704239,-0.587383 -3.339793,-1.174158 -4.916419,-1.756673c-1.531528,-0.565845 -3.019172,-1.13333 -4.47376,-1.696825c-1.432289,-0.554856 -4.252592,-1.666597 -5.656864,-2.22071c-1.399841,-0.552371 -2.790642,-1.101851 -4.166361,-1.6503c-1.358138,-0.541433 -2.692833,-1.07749 -3.99776,-1.610419c-1.274337,-0.520436 -3.704476,-1.536861 -4.851237,-2.034016c-1.10931,-0.480926 -2.181776,-0.958944 -3.223151,-1.435898c-1.021471,-0.467841 -2.02343,-0.939621 -3.012346,-1.415965c-0.986164,-0.475026 -2.961208,-1.453159 -3.959916,-1.959799c-1.007606,-0.511171 -2.015068,-1.031759 -3.012346,-1.56719c-0.991453,-0.532304 -1.964359,-1.072384 -2.906997,-1.627037c-0.923091,-0.54314 -2.651594,-1.646699 -3.440747,-2.211293c-0.764245,-0.546758 -1.484928,-1.109493 -2.169268,-1.685194c-0.675942,-0.568635 -1.324868,-1.158875 -1.958463,-1.764974c-0.63892,-0.611187 -1.908147,-1.902521 -2.555107,-2.579693c-0.659932,-0.690764 -1.321544,-1.397453 -1.983085,-2.113965c-0.662827,-0.717915 -1.317613,-1.437707 -1.962001,-2.153863c-0.634346,-0.704999 -1.847503,-2.072951 -2.420026,-2.728162c-0.553118,-0.633013 -1.084723,-1.248748 -1.593136,-1.85138c-0.494261,-0.585879 -0.969654,-1.161817 -1.424499,-1.731736c-0.445947,-0.558778 -1.291276,-1.669471 -1.691517,-2.225697c-0.395988,-0.550309 -0.776002,-1.101276 -1.141686,-1.6503c-0.360288,-0.540875 -0.705174,-1.078436 -1.036337,-1.610419c-0.324552,-0.521365 -0.932775,-1.53965 -1.217839,-2.033459c-0.276952,-0.47976 -0.539896,-0.947415 -0.790404,-1.401004c-0.241288,-0.436869 -0.469068,-0.857982 -0.685055,-1.26141c-0.205552,-0.38397 -0.579884,-1.091775 -0.749593,-1.413751c-0.159667,-0.302922 -0.310615,-0.590055 -0.45145,-0.86586c-0.135867,-0.266017 -0.265517,-0.526674 -0.388162,-0.786097c-0.122502,-0.259102 -0.358108,-0.795497 -0.473678,-1.078233c-0.118714,-0.290446 -0.23457,-0.58855 -0.351283,-0.890779c-0.117499,-0.30419 -0.233462,-0.608905 -0.351318,-0.910745c-0.11632,-0.297918 -0.349674,-0.871473 -0.468174,-1.142307c-0.114212,-0.260979 -0.228959,-0.509717 -0.339025,-0.747856c-0.104992,-0.2272 -0.205945,-0.442617 -0.296821,-0.648161c-0.08548,-0.193354 -0.2261,-0.54757 -0.276166,-0.709276c-0.046492,-0.150126 -0.080799,-0.292779 -0.112425,-0.427114c-0.030018,-0.127522 -0.056677,-0.250345 -0.091341,-0.367284c-0.034092,-0.115012 -0.129757,-0.339372 -0.197512,-0.447993c-0.069649,-0.111664 -0.151877,-0.218189 -0.238858,-0.320741c-0.085623,-0.100963 -0.174033,-0.194267 -0.259978,-0.280877c-0.079619,-0.08027 -0.217809,-0.211055 -0.270698,-0.261097c-0.042347,-0.040084 -0.075331,-0.071293 -0.100096,-0.094741c-0.017761,-0.016805 -0.029696,-0.028047 -0.036915,-0.034894c-0.003681,-0.0035 -0.005253,-0.004987 -0.005253,-0.004057c0,0.006458 0,0.024007 0,0.058157c0,0.056331 0,0.140337 0,0.257597c0,0.156043 0,0.606606 0,0.911303c0,0.360082 0,0.775565 0,1.246449c0,0.526268 0,1.107954 0,1.745025c0,0.692471 -0.001072,2.243601 0.000393,3.103002c0.001572,0.919232 0.006254,1.902792 0.024586,2.954922c0.019619,1.125384 0.053211,2.328401 0.108887,3.613041c0.059429,1.371553 0.248292,4.391412 0.385482,6.045921c0.144944,1.747713 0.323087,3.579296 0.539217,5.486027c0.22417,1.977483 0.485971,4.015303 0.79219,6.104281c0.313331,2.1376 1.062531,6.515588 1.50394,8.740102c0.446804,2.251732 0.943174,4.522941 1.480711,6.813912c0.543934,2.31819 1.131466,4.655721 1.754733,7.013353c0.630343,2.384479 1.990732,7.21445 2.710629,9.660433c0.725793,2.465983 1.476423,4.940199 2.234271,7.420518c0.758206,2.481469 1.522701,4.955735 2.276404,7.420535c0.748307,2.447116 2.198428,7.269293 2.883161,9.636984c0.67512,2.334487 1.322831,4.644123 1.944419,6.931916c0.615334,2.264835 1.20669,4.514623 1.775817,6.752442c0.565912,2.225072 1.643023,6.661791 2.15987,8.87655c0.513594,2.200795 1.007391,4.378935 1.49304,6.519747c0.474571,2.091953 0.932846,4.12389 1.38762,6.081001c0.435333,1.873426 1.274445,5.315022 1.686228,6.861756c0.385017,1.446177 0.771428,2.802751 1.141686,4.091668c0.355821,1.238672 0.708354,2.44201 1.036337,3.633007c0.327804,1.190354 0.940708,3.651028 1.218018,4.95347c0.286637,1.346296 0.549259,2.735397 0.802732,4.156485c0.257512,1.443708 0.499872,2.90554 0.73948,4.375858c0.239716,1.470927 0.706961,4.385968 0.941673,5.814562c0.230567,1.403337 0.460026,2.777358 0.677979,4.119901c0.212127,1.3066 0.413963,2.574249 0.593714,3.80085c0.172925,1.179906 0.454416,3.39125 0.551903,4.417785c0.092627,0.975276 0.157023,1.907238 0.200263,2.80035c0.041596,0.859368 0.062752,1.691449 0.073759,2.501215c0.010792,0.793062 0.010542,2.35163 0.010542,3.127212c0,0.775548 0,1.551129 0,2.326677c0,0.775582 0,1.551163 0,2.326711c0,0.775582 0.001179,2.326711 -0.000393,3.10192c-0.001537,0.772978 -0.005325,1.541628 -0.024586,2.303414c-0.019047,0.753198 -0.050459,1.495576 -0.108887,2.223685c-0.057284,0.713807 -0.243575,2.086442 -0.385089,2.738102c-0.138262,0.636715 -0.312152,1.253684 -0.514631,1.851414c-0.20012,0.590866 -0.430973,1.167125 -0.683268,1.73172c-0.25208,0.564155 -0.815419,1.674273 -1.118887,2.225714c-0.305469,0.555093 -0.626984,1.106095 -0.966081,1.650266c-0.340062,0.545727 -0.696633,1.083643 -1.07143,1.610436c-0.374654,0.526589 -1.171526,1.544671 -1.591778,2.033459c-0.41675,0.48473 -0.844079,0.949815 -1.268191,1.401004c-0.412855,0.439219 -0.818992,0.857542 -1.204938,1.261393c-0.366577,0.383598 -1.019255,1.08885 -1.291419,1.413582c-0.250579,0.298966 -0.470854,0.585389 -0.676228,0.854228c-0.194688,0.254875 -0.379014,0.501907 -0.570879,0.734567c-0.190686,0.231207 -0.618264,0.68013 -0.869237,0.896155c-0.262586,0.226068 -0.552797,0.443919 -0.865949,0.653148c-0.323444,0.216127 -0.669402,0.421028 -1.034586,0.61325c-0.373332,0.196516 -1.168631,0.550427 -1.587669,0.704103c-0.427293,0.156719 -0.874454,0.295585 -1.341949,0.415483c-0.484184,0.124158 -0.994741,0.229009 -1.531671,0.315771c-0.562302,0.090887 -1.784108,0.221976 -2.445791,0.266101c-0.69356,0.046255 -1.418352,0.07486 -2.171019,0.094708c-0.778218,0.020524 -1.580057,0.029788 -2.402873,0.034928c-0.841542,0.005241 -2.571474,0.00497 -3.455005,0.00497c-0.891715,0 -1.78811,0 -2.68565,0c-0.895217,0 -1.784608,0 -2.664602,0c-0.867093,0 -2.548639,0.001724 -3.357625,-0.000541c-0.791368,-0.002198 -1.571266,-0.007777 -2.344874,-0.034928c-0.774144,-0.027151 -1.554649,-0.07371 -2.344909,-0.154555c-0.810308,-0.082907 -2.505828,-0.35195 -3.397828,-0.546572c-0.927272,-0.202331 -1.875341,-0.44916 -2.836741,-0.736258c-0.980768,-0.29288 -1.964395,-0.624746 -2.94209,-0.995495c-0.981947,-0.372339 -2.896562,-1.212028 -3.815293,-1.679277c-0.914442,-0.465051 -1.807193,-0.96946 -2.683899,-1.507376c-0.886247,-0.543766 -1.763846,-1.12858 -2.641766,-1.746698c-0.899076,-0.632996 -2.730498,-2.010804 -3.673779,-2.752506c-0.971048,-0.763544 -1.953388,-1.561679 -2.936837,-2.398189c-1.001173,-0.851557 -1.998094,-1.736014 -2.979005,-2.657427c-0.989666,-0.929629 -2.906783,-2.876935 -3.820153,-3.895186c-0.916658,-1.021936 -1.80119,-2.079815 -2.659313,-3.169308c-0.866557,-1.100211 -1.708348,-2.237853 -2.532844,-3.40863c-0.836932,-1.188427 -2.476917,-3.673716 -3.28912,-4.968043c-0.825782,-1.315966 -1.64054,-2.66358 -2.446792,-4.036858c-0.814079,-1.386633 -1.615096,-2.793791 -2.404624,-4.216299c-0.792101,-1.42714 -2.335815,-4.303737 -3.085747,-5.745856c-0.745805,-1.434173 -1.471313,-2.863613 -2.171019,-4.286121c-0.690576,-1.403945 -1.353296,-2.793385 -1.981316,-4.16646c-0.614637,-1.34376 -1.737258,-3.953883 -2.238738,-5.216257c-0.489759,-1.23289 -0.94505,-2.456515 -1.378829,-3.677841c-0.434726,-1.223964 -0.853727,-2.467673 -1.273462,-3.737689c-0.431259,-1.304876 -1.326083,-4.066782 -1.805085,-5.537574c-0.495244,-1.520698 -1.002156,-3.073958 -1.507049,-4.64507c-0.5045,-1.569929 -0.997921,-3.123087 -1.464916,-4.645104c-0.450896,-1.469541 -1.242836,-4.194084 -1.561706,-5.423086c-0.295606,-1.139298 -0.545149,-2.210025 -0.751773,-3.225808c-0.197351,-0.970238 -0.359841,-1.915049 -0.498853,-2.846876c-0.138905,-0.931049 -0.374993,-2.85658 -0.489276,-3.875067c-0.118446,-1.055613 -0.232247,-2.142502 -0.338989,-3.254075c-0.108387,-1.128715 -0.208536,-2.268824 -0.296857,-3.4136c-0.088107,-1.142037 -0.227905,-3.393448 -0.275952,-4.490718c-0.047118,-1.075833 -0.078708,-2.132021 -0.100132,-3.169308c-0.021066,-1.019434 -0.031376,-2.022402 -0.036879,-3.009749c-0.005414,-0.972976 -0.00704,-2.880147 -0.004681,-3.816911c0.002341,-0.929021 0.008237,-1.853781 0.036879,-2.777088c0.028714,-0.92591 0.077422,-1.857805 0.163348,-2.797037c0.087213,-0.953298 0.370348,-2.909259 0.577704,-3.914391c0.212342,-1.029341 0.473838,-2.071835 0.778111,-3.122782c0.308793,-1.066534 0.660736,-2.135605 1.052132,-3.202545c0.393915,-1.073804 1.283539,-3.197135 1.774245,-4.239562c0.489866,-1.040634 1.012358,-2.064633 1.556257,-3.0746c0.542058,-1.006552 1.106451,-1.997043 1.682708,-2.974854c0.572934,-0.972199 1.743101,-2.876732 2.331437,-3.811162c0.582689,-0.925437 1.167273,-1.836588 1.756484,-2.730562c0.581832,-0.8828 1.166362,-1.747544 1.756484,-2.590952c0.580956,-0.830306 1.751606,-2.4248 2.341586,-3.185926c0.57799,-0.745658 1.158035,-1.464553 1.731898,-2.160507c0.558961,-0.677865 1.1109,-1.330117 1.64758,-1.961067c0.518794,-0.609936 1.501795,-1.760341 1.956926,-2.304919c0.436316,-0.522059 0.850833,-1.027025 1.241836,-1.519008c0.377477,-0.474958 0.735764,-0.940162 1.073199,-1.399347c0.32918,-0.447942 0.940011,-1.337335 1.22311,-1.782336c0.278953,-0.438458 0.5412,-0.875412 0.790404,-1.306262c0.242556,-0.419371 0.469729,-0.829596 0.685037,-1.226516c0.206195,-0.380149 0.579384,-1.087025 0.749629,-1.408392c0.159221,-0.300556 0.308435,-0.581483 0.451414,-0.842597c0.133848,-0.244444 0.261854,-0.472321 0.38818,-0.683055c0.118929,-0.198409 0.354427,-0.554839 0.473463,-0.714263c0.113711,-0.152256 0.228888,-0.293032 0.339025,-0.427114c0.104956,-0.127776 0.20641,-0.24835 0.296821,-0.367284c0.085945,-0.113085 0.227458,-0.335602 0.275987,-0.447993c0.046599,-0.107945 0.078333,-0.216194 0.100096,-0.320741c0.02062,-0.099052 0.031269,-0.193422 0.036915,-0.280877c0.005146,-0.079509 0.006004,-0.211055 0.005074,-0.261469c-0.000786,-0.042671 -0.003216,-0.08125 -0.012329,-0.118004c-0.009899,-0.039814 -0.028803,-0.084581 -0.054426,-0.137936c-0.031912,-0.06639 -0.128613,-0.247437 -0.192258,-0.369126c-0.07383,-0.141233 -0.155379,-0.299947 -0.238858,-0.475313c-0.089161,-0.187268 -0.178036,-0.385914 -0.259978,-0.594974c-0.083657,-0.213456 -0.22267,-0.653807 -0.270698,-0.87602c-0.047135,-0.218139 -0.078404,-0.433285 -0.100096,-0.641517c-0.020691,-0.198798 -0.031269,-0.386996 -0.036915,-0.56172c-0.005146,-0.159153 -0.005253,-0.422144 -0.005253,-0.522414c0,-0.081436 0,-0.147353 0,-0.20108c0,-0.044886 0,-0.084209 0,-0.121335c0,-0.038225 0.000536,-0.131292 -0.000179,-0.191664c-0.000786,-0.068165 -0.002609,-0.140963 -0.012329,-0.214402c-0.009506,-0.071783 -0.023228,-0.140269 -0.054426,-0.194436c-0.027624,-0.047996 -0.131257,-0.094268 -0.196725,-0.070363c-0.112532,0.041099 -0.273021,0.172289 -0.521689,0.375601c-0.364987,0.298425 -0.857748,0.726199 -1.512338,1.292991c-0.839773,0.727129 -3.165903,2.749903 -4.69936,4.07652c-1.77948,1.539464 -3.797568,3.27869 -6.049332,5.201853c-2.466268,2.106374 -5.144914,4.377346 -8.030648,6.797293c-3.068862,2.573522 -9.754041,8.099092 -13.348308,11.025629c-3.714107,3.024102 -7.532134,6.101576 -11.411877,9.217055c-3.903042,3.134177 -7.804798,6.252057 -11.664814,9.336733c-3.785793,3.025336 -11.001487,8.797565 -14.372335,11.504628c-3.225707,2.590479 -6.329054,5.089327 -9.353282,7.49864c-2.957671,2.356296 -5.885805,4.668738 -8.826323,6.940234c-2.953472,2.281538 -9.079761,6.872846 -12.306325,9.206725c-3.301127,2.387809 -6.685983,4.775551 -10.129642,7.149632c-3.453093,2.380573 -6.920963,4.716853 -10.38258,6.990073c-3.403742,2.235215 -10.023953,6.42771 -13.202131,8.351043c-3.050441,1.846038 -6.004252,3.57015 -8.857949,5.175243c-2.725031,1.532735 -5.348536,2.951118 -7.867291,4.257854c-2.388989,1.239416 -6.83719,3.415561 -8.897571,4.354455c-1.948064,0.887736 -3.825192,1.691957 -5.654122,2.40813c-1.775433,0.695244 -3.542156,1.322965 -5.316883,1.889622c-1.783697,0.569531 -5.51343,1.593868 -7.486526,2.072985c-2.025458,0.491831 -4.093183,0.949409 -6.177552,1.377741c-2.072326,0.425863 -4.118234,0.812809 -6.114318,1.158368c-1.918287,0.332102 -5.448623,0.862005 -7.021845,1.049426c-1.443493,0.171968 -2.776722,0.29589 -4.011804,0.378898c-1.149209,0.077261 -2.229394,0.118647 -3.253009,0.13961c-0.981179,0.020118 -2.87362,0.022147 -3.810594,0.019205c-0.938171,-0.002975 -1.878995,-0.010448 -2.822679,-0.046525c-0.949115,-0.03628 -1.904975,-0.097514 -2.86482,-0.206085c-0.971798,-0.109923 -2.943716,-0.467148 -3.9396,-0.72865c-1.017138,-0.267082 -2.038162,-0.596648 -3.061554,-0.973889c-1.042171,-0.384139 -2.083627,-0.819267 -3.124784,-1.293008c-1.055902,-0.48047 -3.161311,-1.54413 -4.210097,-2.11711c-1.057546,-0.577781 -2.107602,-1.184505 -3.149375,-1.816486c-1.046964,-0.63516 -2.083015,-1.294834 -3.10722,-1.976046c-1.025867,-0.682328 -3.038563,-2.09946 -4.023132,-2.831559c-0.984301,-0.73193 -1.954411,-1.483336 -2.910495,-2.255232c-0.960113,-0.775176 -1.908973,-1.57331 -2.84726,-2.394842c-0.946314,-0.828565 -2.822308,-2.558188 -3.752434,-3.462357c-0.943594,-0.917254 -1.882752,-1.868016 -2.810377,-2.860198c-0.946212,-1.012063 -1.885066,-2.06984 -2.810372,-3.179249c-0.948664,-1.137438 -2.823273,-3.579922 -3.746975,-4.88943c-0.948753,-1.345045 -1.879898,-2.74899 -2.798079,-4.203011c-0.936554,-1.483133 -1.854117,-3.012792 -2.755922,-4.581943c-0.914183,-1.590689 -2.692609,-4.866302 -3.554147,-6.544328c-0.86852,-1.691618 -1.713416,-3.41147 -2.522313,-5.163612c-0.815823,-1.767155 -1.597471,-3.567208 -2.332612,-5.402934c-0.742091,-1.853071 -2.100139,-5.666398 -2.706155,-7.627363c-0.612078,-1.980576 -1.16698,-3.996825 -1.668659,-6.04276c-0.505565,-2.061759 -0.955369,-4.150872 -1.352494,-6.262166c-0.399276,-2.122722 -1.052517,-6.4199 -1.311898,-8.585902c-0.258966,-2.162519 -0.466687,-4.31645 -0.639362,-6.448302c-0.169848,-2.096924 -0.301237,-4.150737 -0.407504,-6.14915c-0.102692,-1.931194 -0.245482,-5.550676 -0.290991,-7.220536c-0.043144,-1.583132 -0.068411,-3.093484 -0.050938,-4.543718c0.016915,-1.403962 0.070647,-2.775549 0.180918,-4.124905c0.109948,-1.345417 0.487544,-4.06854 0.765242,-5.465182c0.283976,-1.428239 0.633718,-2.87002 1.05389,-4.31104c0.422886,-1.450335 0.911092,-2.88674 1.475447,-4.291108c0.560156,-1.39392 1.866501,-4.048202 2.623407,-5.279029c0.74593,-1.212991 1.575492,-2.365764 2.483669,-3.453498c0.910413,-1.090406 1.911158,-2.127439 2.989536,-3.114465c1.098171,-1.005149 3.54451,-2.913215 4.88088,-3.831112c1.372425,-0.942664 2.821716,-1.849741 4.329734,-2.730562c1.534601,-0.896341 3.122935,-1.757653 4.751289,-2.590952c1.642666,-0.840619 5.01002,-2.430953 6.716992,-3.185926c1.699906,-0.751845 3.399851,-1.467394 5.083265,-2.160507c1.653181,-0.680671 3.275536,-1.329795 4.851407,-1.961067c1.52179,-0.609615 4.368268,-1.758127 5.675594,-2.305291c1.248487,-0.522549 2.450982,-1.039958 3.634166,-1.54227c1.179486,-0.50074 2.375222,-1.004523 3.613087,-1.502389c1.289833,-0.518762 4.126382,-1.589996 5.707404,-2.146289c1.674194,-0.589074 3.434412,-1.179281 5.260671,-1.769961c1.868185,-0.604239 3.768301,-1.195984 5.682228,-1.769961c1.903537,-0.570866 5.62723,-1.628052 7.415091,-2.10252c1.72367,-0.457427 3.389028,-0.875598 4.993689,-1.25808c1.537987,-0.366591 3.013588,-0.698338 4.424579,-0.998826c1.341699,-0.285729 3.823083,-0.773316 4.961294,-0.980533c1.075789,-0.195856 2.101218,-0.370648 3.084381,-0.533487c0.949758,-0.157311 1.876869,-0.304884 2.789301,-0.453707c0.908064,-0.148114 2.747669,-0.461095 3.694864,-0.635042c0.967001,-0.177581 1.947099,-0.366472 2.936837,-0.558407c0.994696,-0.192898 1.988847,-0.388315 2.978996,-0.578356c0.980241,-0.18813 2.89398,-0.542143 3.820162,-0.699115c0.903722,-0.153169 1.789325,-0.292559 2.659313,-0.415483c0.854531,-0.120743 1.698092,-0.22671 2.532853,-0.315771c0.826524,-0.088182 2.469332,-0.220421 3.28912,-0.26627c0.818063,-0.045748 1.634259,-0.077108 2.446774,-0.106373c0.807744,-0.029095 1.609834,-0.053744 2.404633,-0.086424c0.786821,-0.032358 2.331348,-0.12103 3.086918,-0.187048c0.749576,-0.065494 1.496122,-0.147488 2.244796,-0.237665c0.756464,-0.091124 1.523871,-0.19327 2.308021,-0.297479c0.805288,-0.107015 2.497483,-0.329144 3.392539,-0.438205c0.923859,-0.112577 1.871553,-0.22223 2.836723,-0.332373c0.976712,-0.111462 1.959499,-0.221266 2.942125,-0.33239c0.976837,-0.110464 2.889558,-0.331341 3.815472,-0.443192c0.908635,-0.109754 1.805264,-0.221587 2.696192,-0.332373c0.890928,-0.110802 1.787574,-0.222636 2.69621,-0.33239c0.925914,-0.11185 2.854055,-0.334283 3.867396,-0.443192c1.049166,-0.112746 2.13607,-0.223447 3.261782,-0.332373c1.165111,-0.112729 2.371461,-0.22343 3.620122,-0.33239c1.291616,-0.112696 4.009892,-0.334249 5.436696,-0.443006c1.461628,-0.111411 2.946843,-0.218984 4.443903,-0.320741c1.496757,-0.101741 2.981935,-0.196414 4.443921,-0.280877c1.426464,-0.0824 4.12757,-0.21496 5.38186,-0.261097c1.190751,-0.043804 2.325523,-0.074268 3.411086,-0.094741c1.043306,-0.019679 2.051554,-0.029687 3.031697,-0.034894c0.959041,-0.005106 2.841994,-0.004987 3.778396,-0.004987c0.934061,0 1.863441,0 2.785781,0c0.912977,0 1.814251,0 2.701481,0c0.870827,0 2.553928,0 3.362092,0c0.785937,0 1.550789,0 2.295737,0c0.726204,0 1.434845,0 2.1271,0c0.677032,0 1.990089,0 2.628669,0c0.629217,0 1.251395,0 1.868909,0c0.615155,0 1.230311,0 1.847825,0c0.622178,0 1.889975,0 2.538901,0c0.654769,0 1.309555,0 1.958463,0c0.637222,0 1.256863,0 1.853096,0c0.566966,0 1.589616,0 2.035581,0c0.404958,0 0.774805,0 1.115367,0c0.317137,0 0.61671,0 0.904579,0c0.282009,0 0.851905,-0.000524 1.15012,0.000186c0.307578,0.000744 0.622231,0.002637 0.941459,0.011631c0.321711,0.009079 0.643637,0.02399 0.962561,0.051513c0.315011,0.027185 0.921768,0.115773 1.207297,0.181892c0.276631,0.064074 0.539646,0.142738 0.790404,0.226034c0.241056,0.080067 0.468389,0.165493 0.685037,0.245966c0.204909,0.076111 0.578633,0.209195 0.750022,0.256296c0.161311,0.044328 0.319406,0.077345 0.476,0.106373c0.158399,0.029349 0.323391,0.055148 0.497084,0.086424c0.186987,0.03366 0.613422,0.124851 0.85873,0.186862c0.268411,0.067844 0.556656,0.146694 0.865949,0.226034c0.327322,0.083972 0.672047,0.169027 1.034568,0.245966c0.376012,0.079797 1.1709,0.211376 1.586686,0.25611c0.4227,0.045477 0.851137,0.074556 1.280484,0.094741c0.426667,0.020051 0.847777,0.02967 1.2594,0.034894c0.398704,0.005072 1.143473,0.004987 1.483838,0.004987c0.321622,0 0.6292,0 0.927415,0c0.293534,0 0.587067,0 0.885282,0c0.307578,0 0.969565,0 1.331997,0c0.382319,0 0.781041,0 1.192645,0c0.420967,0 0.847795,0 1.276964,0c0.428007,0 1.266422,0 1.670611,0c0.393647,0 0.777932,0 1.154015,0c0.369061,0 0.732262,0 1.090781,0c0.354999,0 1.059154,0 1.410455,0c0.3513,0 0.702583,0 1.053883,0c0.3513,0 0.702601,0 1.053901,0c0.351283,0 1.053883,0 1.404987,0c0.349925,0 0.697509,0 1.04159,0c0.3394,0 0.67294,0 0.99944,0c0.318316,0 0.925663,0 1.212765,0c0.276541,0 0.54372,0 0.802715,0c0.251955,0 0.498049,0 0.739462,0c0.237911,0 0.707872,0 0.941673,0c0.231478,0 0.458258,0 0.678015,0c0.210376,0 0.409067,0 0.593678,0c0.168244,0 0.446161,0 0.552135,0c0.08607,0 0.155736,0 0.212521,0c0.047439,0 0.089,0 0.128238,0c0.040399,0 0.138762,0 0.202765,0c0.073383,0 0.153789,0 0.238894,0c0.087428,0 0.174855,0 0.25996,0c0.080405,0 0.217792,0 0.270877,0c0.043723,0 0.080405,0 0.112425,0c0.029661,0 0.059321,0 0.091341,0c0.036683,0 0.133491,0 0.19769,0c0.074759,0 0.158863,0 0.251187,0c0.099328,0 0.204534,0 0.314403,0c0.11339,0 0.346029,0 0.462939,0c0.11573,0 0.22912,0 0.338989,0c0.105206,0 0.204534,0 0.296857,0c0.084104,0 0.223063,0 0.275952,0c0.042365,0 0.075349,0 0.100132,0c0.017761,0 0.029661,0 0.036879,0c0.003717,0 0.005271,0 0.005468,0c0.001358,0 0.005074,0 0.012293,0c0.0119,0 0.029661,0 0.054443,0c0.032984,0 0.128238,0 0.192241,0c0.073383,0 0.153789,0 0.238894,0c0.087428,0 0.174855,0 0.25996,0c0.080405,0 0.217792,0 0.270877,0c0.043723,0 0.080405,0 0.112425,0c0.029661,0 0.059321,0 0.091341,0c0.036683,0 0.133491,0 0.197494,0c0.073383,0 0.153789,0 0.238894,0c0.087428,0 0.174855,0 0.25996,0c0.080405,0 0.217792,0 0.271074,0c0.045081,0 0.08548,0 0.124718,0c0.041561,0 0.089,0 0.145784,0c0.069667,0 0.261711,0 0.389949,0c0.148125,0 0.312652,0 0.490045,0c0.186773,0 0.379407,0 0.574381,0c0.193795,0 0.563821,0 0.734209,0c0.162187,0 0.319674,0 0.476,0c0.158667,0 0.323194,0 0.497084,0c0.186773,0 0.613011,0 0.85873,0c0.267965,0 0.556995,0 0.865949,0c0.327679,0 0.672922,0 1.034568,0c0.376869,0 1.171579,0 1.587079,0c0.426042,0 0.861464,0 1.30507,0c0.450628,0 0.907117,0 1.368305,0c0.46469,0 1.399913,0 1.86773,0c0.464297,0 0.921554,0 1.368287,0c0.432689,0 0.847813,0 1.241854,0c0.369436,0 1.020506,-0.000626 1.296279,0.000186c0.244147,0.000727 0.460348,0.001893 0.651642,0.011631c0.170567,0.008673 0.324231,0.023161 0.461956,0.051513c0.129363,0.026627 0.369079,0.118055 0.48422,0.181892c0.11925,0.066103 0.234712,0.1448 0.351283,0.226034c0.117678,0.082011 0.233104,0.16693 0.351318,0.245966c0.115998,0.077548 0.349317,0.210379 0.468389,0.25611c0.115391,0.044328 0.233497,0.074522 0.351283,0.094741c0.116534,0.020017 0.234105,0.029721 0.351318,0.034894c0.116999,0.005173 0.351283,0.004987 0.468389,0.004987c0.117106,0 0.234176,0 0.351283,0c0.117106,0 0.234212,0 0.351318,0c0.11707,0 0.351283,-0.000558 0.468174,0.000186c0.115748,0.000727 0.229352,0.00235 0.339025,0.011631c0.105421,0.008909 0.206052,0.023246 0.296821,0.051513c0.085837,0.026728 0.228209,0.117632 0.276166,0.181892c0.049244,0.066018 0.081799,0.14502 0.112425,0.226034c0.03109,0.082248 0.056427,0.166524 0.091341,0.245966c0.033949,0.077227 0.129149,0.211511 0.19769,0.25611c0.070793,0.046052 0.157916,0.075046 0.251187,0.094741c0.098488,0.020794 0.204409,0.029772 0.314403,0.034894c0.113318,0.005275 0.346029,0.004987 0.462921,0.004987c0.115748,0 0.229138,0 0.339025,0c0.10517,0 0.204516,0 0.296821,0c0.084122,0 0.223098,0 0.276166,0c0.043705,0 0.080405,0 0.112425,0c0.029661,0 0.059321,0 0.091341,0l0.036701,0" fill="none" id="svg_4" stroke="#f6b600" stroke-dasharray="null" stroke-linecap="null" stroke-linejoin="null" stroke-width="6"/>
  <path d="m322.5,200.5c0,0.761673 0,1.652664 0,2.516006c0,0.963165 -0.135284,1.950165 0.285339,2.68399c0.393555,0.686569 1.214661,1.300003 1.914673,2c0.5,0.5 1.096985,1.397491 2,1.714676c0.852783,0.299545 1.747528,0.104553 2.601318,0.085327c0.799286,-0.018005 1.682983,-0.49472 2.282684,-1.084c0.637512,-0.626434 1.133606,-1.534775 0.629333,-2.199997c-0.446655,-0.589188 -1.557251,-0.645065 -2.314667,-0.800003c-1.017456,-0.20813 -1.617188,-0.569626 -2.820007,-0.794662c-0.795929,-0.148911 -1.365631,-0.073822 -2.412018,-0.28801c-0.94632,-0.19371 -1.543365,-0.565399 -2.56665,-0.748001c-0.790985,-0.141144 -1.800018,-0.085327 -2.600006,-0.085327c-1,0 -1.838074,-0.185043 -2.833344,0.166672c-0.82663,0.292114 -1.477997,0.952454 -1.881317,1.633331c-0.48996,0.827148 -1.023956,1.565506 -1.285339,2.421494c-0.256592,0.84021 -0.612061,2.014664 0.001343,2.693176c0.560883,0.620422 1.645325,0.085327 2.483978,0.085327c0.919189,0 1.914673,0 2.714691,0c0.999817,0 1.779144,0 2.778473,0c0.82019,0 1.721588,0.010666 2.621521,0c0.879333,-0.010422 1.230713,-0.630661 1.420837,-1.5c0.184143,-0.842026 1.277985,-1.541031 0.979004,-2.378662c-0.272522,-0.763489 -1.321655,-1.009323 -2.166504,-1.28801c-0.675812,-0.222931 -1.644867,-0.864212 -2.3125,-1.3125c-0.698242,-0.468842 -1.6875,-0.520828 -2.546173,-0.520828c-0.776001,0 -1.857269,-0.454895 -2.617493,0.114334c-0.650879,0.48735 -0.264465,1.728699 -0.393188,2.511002c-0.145325,0.883163 -0.623535,1.563156 -0.842499,2.574493c-0.16629,0.768021 -0.12149,1.778839 -0.12149,2.552841c0,0.899994 0,1.763336 0,2.726501c0,0.910156 -0.307251,2.13443 0.285339,2.520828c0.682251,0.44487 1.73999,0 2.661987,0c0.886017,0 1.697632,-0.058548 2.136688,-0.801331c0.413757,-0.699997 0.737732,-1.556351 1.201324,-2.400009c0.335266,-0.610123 0.996521,-1.454391 1.357483,-2.088821c0.504974,-0.887512 1.589386,-1.561005 1.357178,-2.2845c-0.204773,-0.638062 -0.936615,-1.200119 -1.704498,-1.420837c-0.860687,-0.247375 -1.795502,-0.004501 -2.695496,-0.004501c-0.899994,0 -1.801331,0 -2.766663,0c-0.8125,0 -1.727997,0 -2.538666,0c-0.961334,0 -1.947296,0.165695 -2.294678,1.057159c-0.323212,0.829422 -0.201508,1.801498 0,2.590179c0.219482,0.85907 1.219604,1.099396 1.915985,1.636658c0.630768,0.486633 1.146057,1.208588 1.962677,1.594498c0.670868,0.317032 1.685333,0.121506 2.546661,0.121506c0.931854,0 1.773346,0 2.741333,0c0.858673,0 1.814087,0.172562 2.537842,-0.057159c0.860504,-0.273132 1.196106,-1.273758 1.720825,-1.917511c0.520264,-0.63829 0.574677,-1.461334 0.574677,-2.425323c0,-0.900009 0,-1.800003 0,-2.700012c0,-0.899994 0,-1.699997 0,-2.599991c0,-0.863998 -0.168976,-1.931366 -1,-2.279175c-0.81076,-0.339325 -1.704498,-0.020828 -2.642822,-0.020828c-0.878021,0 -1.757172,0 -2.657166,0c-0.900024,0 -1.800659,-0.033905 -2.700012,0c-0.758789,0.028595 -1.640167,0.384109 -2.347321,0.647339c-1.000977,0.372604 -1.871613,0.614273 -2.531342,1.231323c-0.641754,0.600235 -1.121338,1.342667 -1.121338,2.205338c0,0.890671 -0.243317,1.750336 0,2.630661c0.220642,0.798294 0.833038,1.503738 1.166656,2.285339c0.304504,0.713379 1.039703,1.478439 1.397339,2.138672c0.471558,0.870544 1.046295,1.472366 1.731506,2.15683c0.620148,0.619492 1.408478,0.762604 2.204498,1.204498c0.799469,0.443802 1.700012,0.5 2.600006,0.5c0.899994,0 1.732239,0.240784 2.614655,0c0.807861,-0.220444 1.563904,-0.743454 2.385162,-1.221497c0.628082,-0.365601 0.89743,-1.384094 1.604675,-1.831177c0.671265,-0.424332 1.509521,-0.96106 1.938324,-1.647324c0.493286,-0.789444 0.359222,-1.800003 0.357178,-2.657166c-0.002258,-0.947357 -0.163239,-1.810867 -0.425323,-2.46817c-0.402771,-1.010101 -0.487152,-1.831879 -1.010681,-2.574661c-0.555695,-0.788437 -1.150421,-1.304535 -1.921173,-1.952667c-0.696655,-0.5858 -1.424103,-0.761765 -2.206818,-1.222c-0.775848,-0.456207 -1.735992,-0.425339 -2.636017,-0.425339c-0.899994,0 -1.842743,-0.263535 -2.633331,0c-0.790558,0.263519 -1.333313,1.166672 -1.871155,1.704498c-0.695496,0.695496 -1.336792,1.258942 -1.895508,1.931503c-0.542023,0.652466 -0.949707,1.338074 -1.278656,2.342499c-0.263123,0.803482 -0.868286,1.558685 -1.085327,2.421494c-0.219757,0.87352 -0.036011,1.798676 -0.036011,2.652679c0,0.921997 0.09436,1.743362 0.5,2.447327c0.457611,0.794174 0.759064,1.723618 1.301331,2.300003c0.667664,0.709671 1.397186,1.157288 2.365326,1.199997c0.83252,0.036728 1.811829,0 2.528839,0c0.90451,0 1.804504,0 2.704498,0c0.899994,0 1.826996,0.109436 2.766663,-0.166672c0.686707,-0.201782 1.421814,-0.657227 2.076172,-1.485992c0.513824,-0.650757 0.978882,-1.446869 1.457184,-2.100006c0.52298,-0.714142 0.85965,-1.627579 1.247314,-2.485657c0.336243,-0.744263 1.042908,-1.282303 1.052673,-2.151001c0.010071,-0.89595 -0.190857,-1.736694 -0.704498,-2.310669c-0.65802,-0.735321 -1.312805,-1.508347 -1.995514,-1.942841c-0.732117,-0.465942 -1.734467,-0.28334 -2.621307,-0.578659c-0.703766,-0.234344 -1.473602,-0.837067 -2.17868,-1.257675c-0.784302,-0.467865 -1.674622,-0.515488 -2.614655,-0.520828c-0.985321,-0.005585 -1.885345,0 -2.718689,0c-0.871155,0 -1.767303,0.010696 -2.21933,0.704498c-0.488312,0.749512 -0.947327,1.516998 -0.947327,2.395508c0,0.899994 0.283783,1.579895 0.915985,2.18399c0.575989,0.550369 1.282684,1 1.962524,1.594498l0.768829,0.121506" fill="none" id="svg_5" stroke="#ffff56" stroke-dasharray="null" stroke-linecap="null" stroke-linejoin="null" stroke-width="6"/>
 </g>
</svg>