
<svg width="640" height="480" xmlns="http://www.w3.org/2000/svg" xmlns:svg="http://www.w3.org/2000/svg">
 <!-- Created with SVG-edit - https://github.com/SVG-Edit/svgedit-->
 <g class="layer">
  <title>Layer 1</title>
  <path d="m152.250484,184.5c-0.008,-0.925331 -0.033259,-1.696136 -0.125013,-2.833336c-0.080572,-0.998604 -0.142684,-1.566025 -0.202014,-2.178665c-0.063405,-0.654701 -0.202701,-2.081779 -0.274014,-2.850662c-0.151817,-1.636879 -0.224057,-2.502365 -0.301024,-3.397339c-0.079554,-0.925026 -0.161751,-1.880371 -0.254271,-2.864998c-0.095416,-1.015396 -0.198031,-2.061287 -0.321773,-3.135002c-0.258483,-2.242844 -0.425247,-3.404839 -0.599038,-4.590668c-0.176435,-1.203873 -0.366843,-2.415291 -0.563661,-3.628494c-0.196211,-1.209473 -0.397516,-2.405899 -0.597424,-3.583504c-0.385544,-2.271118 -0.570734,-3.351593 -0.749046,-4.397331c-0.17323,-1.015923 -0.342775,-2.007057 -0.513041,-2.977501c-0.167771,-0.956223 -0.336228,-1.90276 -0.513041,-2.842499c-0.355399,-1.888905 -0.551907,-2.842079 -0.750053,-3.806667c-0.200366,-0.975422 -0.406969,-1.959648 -0.612039,-2.955002c-0.206981,-1.004646 -0.41537,-2.018333 -0.612039,-3.044998c-0.397825,-2.07671 -0.575541,-3.133244 -0.748062,-4.194668c-0.172498,-1.061264 -0.332955,-2.12191 -0.483776,-3.176998c-0.149173,-1.043602 -0.288412,-2.073898 -0.416285,-3.087002c-0.246546,-1.95322 -0.351084,-2.889545 -0.450025,-3.797333c-0.096011,-0.880901 -0.182855,-1.738201 -0.258769,-2.574001c-0.074014,-0.814892 -0.140017,-1.612055 -0.191267,-2.393999c-0.099731,-1.521589 -0.126787,-2.267818 -0.151015,-3.005333c-0.024011,-0.731174 -0.038878,-1.458618 -0.048378,-2.184c-0.009499,-0.725294 -0.013196,-1.452663 -0.014627,-2.184c-0.002907,-1.482662 -0.000996,-2.237 -0.000996,-2.997334c0,-0.762333 0,-1.522667 0,-2.277c0,-0.744333 0,-1.474667 0,-2.187c0,-1.354666 0,-1.990166 0,-2.598666c0,-0.584499 0,-1.148 0,-1.6935c0,-0.5305 0,-1.049 0,-1.5585c0,-1.004 0,-1.503833 0,-2.002666c0,-0.496833 0,-0.990666 0,-1.4805c0,-0.484834 0,-0.963667 0,-1.4355c0,-0.918667 -0.001202,-1.365181 0.002003,-1.810667c0.003262,-0.453523 0.01101,-0.924179 0.029253,-1.4205c0.019548,-0.531727 0.049282,-1.107663 0.096755,-1.7355c0.109928,-1.453713 0.20135,-2.290388 0.300017,-3.194667c0.104687,-0.95944 0.223313,-1.959266 0.353281,-2.9865c0.132017,-1.043456 0.270626,-2.088908 0.420772,-3.1215c0.288652,-1.985132 0.443913,-2.909106 0.598042,-3.784c0.146117,-0.829406 0.295496,-1.611002 0.450036,-2.3445c0.145751,-0.691787 0.292326,-1.339832 0.450036,-1.939501c0.286145,-1.087997 0.445264,-1.564909 0.600033,-2.006666c0.145568,-0.415489 0.296721,-0.799814 0.450036,-1.157999c0.146861,-0.343098 0.298288,-0.666824 0.450036,-0.978001c0.29664,-0.60828 0.449315,-0.905634 0.600033,-1.202667c0.149322,-0.294296 0.284497,-0.597021 0.600045,-1.130667c0.572703,-0.968552 1.0351,-1.500031 1.527105,-1.850666c0.675776,-0.481606 1.283294,-0.735085 1.904145,-0.985332c0.403421,-0.162607 1.337073,-0.442858 1.86513,-0.353334c0.819146,0.13887 1.305062,0.465494 1.848123,0.927999c0.327187,0.278648 1.042333,1.122917 1.428106,1.701334c0.941137,1.411104 1.416329,2.360502 1.94814,3.397333c0.577727,1.126339 1.169223,2.35519 1.783253,3.661501c0.641258,1.364227 1.290767,2.786104 1.952008,4.246499c1.349056,2.979489 2.020895,4.48213 2.694187,5.984c0.673555,1.502464 1.345314,3.007599 2.010526,4.5195c0.665887,1.513436 1.328387,3.032135 1.976763,4.5645c1.300244,3.072986 1.927195,4.63353 2.550176,6.202667c0.625384,1.575205 1.240833,3.166809 1.848512,4.7745c0.611444,1.617642 1.217085,3.253269 1.814749,4.9095c1.210733,3.355175 1.802606,5.068525 2.398165,6.788c0.594769,1.717197 1.179512,3.426411 1.756254,5.115c0.566328,1.658081 1.116404,3.277843 1.65499,4.845001c1.013446,2.948883 1.493376,4.309464 1.951138,5.606667c0.44032,1.247784 0.870442,2.458527 1.284839,3.6525c0.41165,1.186047 0.821481,2.380699 1.217337,3.607498c0.829652,2.571159 1.234424,3.959904 1.649119,5.398666c0.42424,1.471878 0.838865,2.968838 1.243214,4.473c0.400686,1.490536 0.784308,2.956192 1.141961,4.382999c0.665304,2.654137 0.943804,3.864067 1.200078,4.992004c0.239816,1.055496 0.456331,2.052841 0.658173,3c0.193121,0.906197 0.374408,1.784035 0.556909,2.639999c0.361338,1.694733 0.555192,2.548294 0.752067,3.410667c0.198386,0.868973 0.400732,1.740646 0.597401,2.615997c0.196372,0.873985 0.390294,1.744804 0.563661,2.615997c0.340806,1.712563 0.474735,2.560837 0.599049,3.396004c0.12214,0.820572 0.226838,1.630066 0.321785,2.425499c0.093024,0.779251 0.174924,1.543587 0.25426,2.290497c0.152812,1.438515 0.225899,2.128891 0.302031,2.798668c0.073911,0.650223 0.148761,1.280273 0.225007,1.889999c0.07382,0.590271 0.147914,1.160522 0.225007,1.709999c0.146037,1.041008 0.224068,1.530235 0.299032,2c0.071851,0.450226 0.143244,0.879936 0.21038,1.290001c0.06384,0.389938 0.125276,0.759331 0.176641,1.110001c0.093596,0.63884 0.125207,0.929947 0.15002,1.202667c0.023302,0.255997 0.038684,0.498528 0.048366,0.729004c0.009247,0.220222 0.013185,0.432648 0.014627,0.639c0.002793,0.402649 0.001007,0.602501 0.001007,0.801331c0,0.196831 0,0.390663 0,0.580498c0,0.184837 0,0.36367 0,0.5355c0,0.318672 0,0.463669 0,0.598671c0,0.125 0,0.239998 0,0.345001c0,0.095001 0,0.18 0,0.254997c0,0.120003 -0.000847,0.165398 0.001007,0.202667c0.001557,0.031425 0.005539,0.059547 0.014627,0.084c0.009843,0.026451 0.026712,0.053307 0.048366,0.084c0.059582,0.084473 0.10202,0.137337 0.149013,0.199997c0.051502,0.068672 0.106003,0.141335 0.162014,0.216003c0.056011,0.074669 0.110512,0.147331 0.162014,0.216003c0.088011,0.11734 0.121499,0.163208 0.149997,0.198662c0.023119,0.028748 0.04317,0.051376 0.063016,0.064499c0.018335,0.012131 0.039439,0.017662 0.063016,0.019501c0.061894,0.004829 0.103141,0.001991 0.151004,0c0.053905,-0.002243 0.113213,-0.007301 0.176641,-0.019501c0.067616,-0.013008 0.141184,-0.023781 0.21038,-0.064499c0.48991,-0.288231 0.832594,-0.867882 1.263082,-1.690666c0.275822,-0.527168 0.565103,-1.175873 0.837057,-1.968002c0.487415,-1.419685 0.602139,-1.995941 0.749069,-2.584663c0.153224,-0.613922 0.451227,-1.913528 0.600033,-2.589333c0.151233,-0.686859 0.45038,-2.081871 0.599919,-2.781998c0.149493,-0.699875 0.298163,-1.399483 0.442162,-2.100006c0.143771,-0.699486 0.419593,-2.098572 0.544045,-2.799995c0.247897,-1.397255 0.350901,-2.099396 0.450014,-2.801338c0.099182,-0.702415 0.189138,-1.408882 0.273396,-2.119499c0.084738,-0.714722 0.24151,-2.164162 0.39066,-3.645828c0.075948,-0.754501 0.150203,-1.517303 0.225007,-2.286003c0.075193,-0.772636 0.149928,-1.547348 0.22503,-2.321999c0.074918,-0.772682 0.148807,-1.54155 0.300017,-3.05867c0.074277,-0.74527 0.149791,-1.481194 0.221642,-2.209496c0.071142,-0.721039 0.141047,-1.435822 0.201384,-2.1465c0.119553,-1.408371 0.20539,-2.810394 0.235902,-3.510666c0.030489,-0.69976 0.050495,-1.399918 0.064114,-2.100006c0.013619,-0.699928 0.024561,-2.099995 0.026003,-2.799995c0.002861,-1.399998 0.000389,-2.099506 0.002014,-2.796001c0.001625,-0.690502 0.012154,-2.041584 0.026003,-2.695999c0.013459,-0.6366 0.008744,-1.255455 0.139124,-2.943501c0.03937,-0.509796 0.15121,-1.459175 0.291891,-2.3325c0.133837,-0.830727 0.364818,-2.032417 0.517035,-2.823002c0.147868,-0.76807 0.278363,-1.503971 0.525046,-2.475666c0.210105,-0.827652 0.535301,-1.756474 0.991312,-2.533333c0.368549,-0.627865 0.842505,-1.220245 1.383849,-1.799999c0.57664,-0.617565 0.995455,-0.988605 1.410607,-1.342834c0.765389,-0.653088 1.287757,-1.071484 1.847001,-1.295498c0.831724,-0.333157 1.342899,-0.320282 2.102772,-0.351002c0.474872,-0.019199 1.371603,-0.011066 1.908643,-0.010666c0.897555,0.000668 1.379958,-0.000481 1.90363,0.035999c0.542557,0.037796 1.600341,0.202843 2.068139,0.431999c0.686099,0.336094 1.285491,1.00452 1.622132,1.592003c0.37347,0.651779 0.687381,1.476433 0.852554,1.924999c0.553567,1.503429 0.727941,2.078671 0.923558,2.670998c0.202987,0.614651 0.412337,1.248547 0.818059,2.576c0.207748,0.67976 0.415496,1.367393 0.79407,2.768002c0.188589,0.697762 0.363399,1.398972 0.532165,2.099998c0.168263,0.69899 0.328629,1.399452 0.484898,2.100002c0.156017,0.699459 0.608251,2.799919 0.758064,3.500332c0.150203,0.702255 0.300772,1.408382 0.450014,2.121002c0.150798,0.720047 0.301321,1.450203 0.450036,2.192997c0.151324,0.755871 0.45141,2.318554 0.600056,3.128338c0.151416,0.824875 0.300337,1.662567 0.450014,2.507996c0.15034,0.849236 0.299353,1.698891 0.450036,2.543999c0.149333,0.837547 0.448228,2.472618 0.600056,3.262001c0.148234,0.770615 0.298048,1.520729 0.450014,2.25c0.148097,0.710716 0.297911,1.400856 0.450036,2.07c0.14796,0.650841 0.442323,1.893608 0.75106,3.052666c0.148669,0.558113 0.298025,1.1036 0.626036,2.149338c0.161488,0.514824 0.69553,2.023056 0.889063,2.521164c0.194495,0.500587 0.602048,1.490257 0.809063,1.979332c0.408537,0.965172 0.616857,1.431931 1.184089,2.799004c0.179548,0.432709 0.50868,1.275116 0.860061,2.039169c0.331605,0.721069 0.883317,1.65873 1.295586,2.168327c0.397779,0.491676 1.02837,1.102028 1.594618,1.714005c0.527495,0.570099 0.993372,1.205666 1.756998,1.557335c0.57545,0.265015 1.176811,0.238495 1.956254,0.242996c0.576045,0.003326 1.31685,-0.116966 1.628129,-0.85733c0.288091,-0.685234 0.460451,-1.628059 0.674906,-2.664673c0.154323,-0.745964 0.289968,-1.559982 0.348154,-1.996666c0.124727,-0.936028 0.239359,-2.545898 0.263027,-3.139999c0.024744,-0.621597 0.03976,-1.270592 0.048366,-1.945496c0.018129,-1.423553 0.01513,-2.170502 0.015634,-3.729172c0.000252,-0.809166 0,-1.633331 0,-2.467499c0,-0.839165 0,-1.678329 0,-2.512497c0,-0.824165 0,-1.633331 0,-3.186668c0,-0.735497 0,-1.444 0,-2.128502c0,-0.663498 0,-1.308998 0,-2.557999c0,-0.609497 -0.003754,-1.813522 0.001991,-3.013496c0.002884,-0.600029 0.001305,-1.200836 0.052006,-2.400002c0.025385,-0.600533 0.034884,-1.208664 0.278157,-2.999836c0.081785,-0.602253 0.19596,-1.197163 0.313888,-1.789497c0.234483,-1.17775 0.370334,-1.752579 0.492039,-2.325336c0.353052,-1.661373 0.451181,-2.200634 0.643043,-3.259998c0.095084,-0.52499 0.279782,-1.579258 0.382031,-2.109333c0.316612,-1.641205 0.44761,-2.200066 0.579913,-2.764168c0.265934,-1.133892 0.410368,-1.69278 0.560548,-2.242001c0.432938,-1.58329 0.584812,-2.073952 0.90005,-2.995499c0.300932,-0.879723 0.459215,-1.30386 0.810688,-2.111668c0.53054,-1.219406 0.741263,-1.607285 1.155088,-2.381332c0.404486,-0.756588 0.805378,-1.464832 1.38996,-2.378166c0.341012,-0.532776 0.805172,-1.232243 1.441234,-1.876499c0.432343,-0.43792 1.035718,-0.887077 1.800123,-1.081333c0.444634,-0.112991 1.200089,-0.085335 1.800123,-0.085335c0.600056,0 1.355443,-0.061592 1.950143,0.057167c0.763146,0.152401 1.268164,0.525688 1.714126,1.256165c0.632766,1.036488 0.753509,1.594353 0.950568,2.125168c0.209281,0.563736 0.619261,1.787971 0.821057,2.431335c0.204291,0.651302 0.591656,1.96244 0.773424,2.608997c0.179227,0.63747 0.516417,1.905502 0.675547,2.542c0.159885,0.639511 0.315421,1.287727 0.464663,1.948502c0.307502,1.361431 0.456949,2.07135 0.747673,3.540501c0.148486,0.750423 0.290082,1.510262 0.426414,2.275497c0.136446,0.765778 0.271427,1.52969 0.502042,3.048c0.112984,0.743912 0.212921,1.479549 0.307135,2.205002c0.092795,0.714565 0.178151,1.419811 0.259891,2.114998c0.080526,0.684818 0.307204,2.68018 0.383152,3.325336c0.075056,0.637505 0.148074,1.269882 0.315536,2.521332c0.083754,0.625961 0.172269,1.254059 0.273396,1.884003c0.311668,1.941483 0.44745,2.59787 0.575541,3.259666c0.127931,0.660881 0.259685,1.314964 0.391507,1.959c0.254443,1.24324 0.497281,2.396179 0.704067,3.439995c0.095244,0.48082 0.271954,1.370308 0.393773,2.186668c0.164097,1.099541 0.229722,2.113731 0.271267,2.749832c0.060063,0.919853 0.139307,1.830009 0.327027,2.699501c0.176457,0.817307 0.390317,1.810715 0.873063,2.363998c0.519644,0.595581 1.291214,0.457336 1.958131,0.457336c0.741813,0 1.410653,0.472229 2.046142,-0.021332c0.529693,-0.411385 0.590099,-1.494675 0.796062,-2.312004c0.247416,-0.981842 0.390294,-1.750137 0.477023,-2.159996c0.186254,-0.880295 0.513693,-2.349815 0.636062,-2.877335c0.126146,-0.543808 0.388509,-1.670403 0.518019,-2.250664c0.131021,-0.587074 0.497235,-2.377655 0.602917,-2.978668c0.105316,-0.599022 0.290975,-1.799545 0.37553,-2.400002c0.08444,-0.599556 0.24,-1.799927 0.39066,-3c0.075307,-0.599792 0.226678,-1.795914 0.308028,-2.389336c0.080915,-0.590248 0.254351,-1.755203 0.356028,-2.325333c0.200126,-1.122215 0.445619,-2.200146 0.575541,-2.723663c0.253871,-1.022972 0.394918,-1.513401 0.64753,-2.475002c0.241281,-0.918488 0.456674,-1.79977 0.636062,-2.661331c0.176549,-0.847939 0.329293,-1.708351 0.477023,-2.592003c0.15343,-0.917667 0.30052,-1.86919 0.375027,-2.354164c0.15105,-0.983387 0.222352,-1.481216 0.450151,-2.979c0.151508,-0.996147 0.22535,-1.491886 0.401899,-2.464169c0.087164,-0.480061 0.383336,-1.876659 0.637046,-2.750668c0.248743,-0.856941 0.395627,-1.268337 0.689441,-2.080833c0.437676,-1.210335 0.743232,-2.004189 1.046682,-2.783165c0.148349,-0.380829 0.409567,-1.142586 1.050093,-2.378334c0.282689,-0.545383 0.74662,-1.226082 1.05007,-1.640331c0.593395,-0.81007 1.033017,-1.40844 1.500106,-1.917336c0.580943,-0.632954 1.212954,-1.11137 1.925124,-1.318665c0.584812,-0.170219 1.233074,-0.161335 2.125158,-0.166668c0.451021,-0.002697 1.140713,-0.000076 1.617989,0c1.023083,0.000168 1.569279,-0.011887 2.116643,0.041668c0.534637,0.052311 1.509468,0.345181 1.880008,0.686165c0.566454,0.521275 0.867318,1.1054 1.285972,2.137669c0.330346,0.814495 0.469172,1.300686 0.776926,2.3825c0.172223,0.605362 0.345659,1.26432 0.698047,2.751999c0.195708,0.826172 0.389356,1.704445 0.586185,2.620499c0.202254,0.941269 0.400526,1.899529 0.592915,2.863503c0.190878,0.956375 0.377773,1.894516 0.696033,3.682667c0.146815,0.824902 0.274998,1.608513 0.389287,2.356499c0.109619,0.7174 0.206947,1.413769 0.294775,2.095501c0.086661,0.672623 0.167691,1.344612 0.316017,2.714664c0.076795,0.709305 0.150752,1.437038 0.221642,2.181c0.072172,0.75737 0.140269,1.526978 0.201384,2.307003c0.061688,0.787319 0.123399,1.580364 0.202025,3.178665c0.039325,0.79924 0.06329,1.597321 0.088881,2.390999c0.025408,0.787651 0.048481,1.567581 0.082129,2.336998c0.033144,0.757927 0.057476,1.505264 0.204017,2.938667c0.070798,0.692566 0.171902,1.364159 0.282391,2.019005c0.108635,0.643867 0.356417,1.893074 0.481533,2.505333c0.123903,0.606407 0.472285,2.408348 0.573161,3.008995c0.100646,0.599373 0.192595,1.200401 0.382031,2.400002c0.094787,0.600197 0.172932,1.207077 0.522277,2.999504c0.116738,0.599007 0.239839,1.193878 0.540039,2.337997c0.146426,0.558022 0.270031,1.121277 0.84381,2.5625c0.177396,0.445618 0.578151,1.240486 1.000078,1.9375c0.399931,0.660675 0.99827,1.564453 1.366086,2.162498c0.37022,0.601974 0.763741,1.234268 1.278098,1.800003c0.582294,0.640457 1.344318,1.204285 1.756998,1.490997c0.4244,0.294861 0.861023,0.578766 1.744638,1.094666c0.426849,0.249214 1.226481,0.692215 1.923751,1.042336c0.595364,0.298958 1.114756,0.574028 2.056145,0.805336c0.446626,0.109741 1.124965,0.155159 1.800123,0.165329c0.674883,0.010162 1.363179,0.088013 1.98228,-0.170166c0.82108,-0.342415 1.149274,-0.873711 1.609977,-1.6605c0.324646,-0.554436 0.758064,-1.468002 1.058081,-2.068001c0.450036,-0.900002 0.7528,-1.497574 1.199952,-2.400162c0.298597,-0.60273 0.615987,-1.198563 0.986207,-2.185173c0.380818,-1.014801 0.542786,-1.758331 0.707798,-2.473l0.135004,-0.674667l0.180257,-1.102333l0.130518,-0.893997" fill="none" id="svg_12" opacity="0.85" stroke="#4c4c4c" stroke-dasharray="null" stroke-linecap="null" stroke-linejoin="null" stroke-width="20"/>
  <path d="m140.5,21.500108c-1.020828,0 -1.979004,0 -2.867004,0c-0.897827,0 -1.513489,0 -2.636993,0c-0.423828,0 -1.82933,0 -2.866669,0c-0.543671,0 -1.101334,0 -2.250671,0c-0.587662,0 -2.378662,-0.001289 -2.979828,0.000433c-0.60817,0.001742 -1.230682,-0.004185 -2.544662,0.053927c-0.706421,0.031243 -1.454987,0.083817 -2.251511,0.168291c-1.77095,0.187814 -2.752945,0.348924 -3.793335,0.521843c-1.087646,0.180777 -2.208618,0.387741 -3.350998,0.614468c-1.153641,0.228961 -2.305115,0.470882 -3.440994,0.731877c-2.186195,0.502329 -3.210915,0.774532 -4.193336,1.040206c-0.947899,0.256338 -1.8657,0.519722 -2.761497,0.782759c-0.881523,0.258841 -1.754028,0.523594 -2.626503,0.782759c-1.768715,0.525391 -2.678726,0.783615 -3.605331,1.045422c-0.940392,0.265699 -1.892403,0.531597 -2.851501,0.808199c-0.964912,0.27828 -1.932625,0.560392 -2.8965,0.866909c-1.919334,0.610362 -2.86261,0.954528 -3.798668,1.304601c-0.932625,0.348784 -1.859367,0.715425 -2.783997,1.089993c-0.926041,0.375141 -1.85257,0.761857 -2.783997,1.148702c-1.882469,0.781838 -2.836716,1.174113 -3.798668,1.562044c-0.965042,0.38918 -1.931519,0.772691 -2.8965,1.148702c-0.959023,0.373687 -1.910187,0.739069 -2.851501,1.089993c-1.834427,0.683883 -2.72612,0.997736 -3.598671,1.306343c-0.856125,0.302795 -1.699013,0.596706 -2.528999,0.892345c-0.820671,0.292324 -1.634201,0.583648 -2.438995,0.892345c-1.605804,0.615946 -2.404228,0.956912 -3.204002,1.308085c-0.804596,0.353288 -1.610649,0.72591 -2.419502,1.115434c-0.816498,0.393206 -1.638023,0.803258 -2.4645,1.232848c-1.68483,0.875748 -2.536949,1.346112 -3.395996,1.824702c-0.863632,0.481148 -1.724464,0.974131 -2.577003,1.481372c-0.846138,0.503439 -1.678703,1.01172 -2.487,1.540082c-1.562634,1.021459 -2.293064,1.557515 -2.999996,2.085628c-0.690365,0.515731 -1.358707,1.040749 -2.013,1.565518c-0.647034,0.518956 -1.284637,1.045138 -1.923,1.565518c-1.283932,1.046621 -1.939743,1.565946 -2.601334,2.089102c-0.665409,0.526172 -1.333817,1.052036 -1.996502,1.590968c-0.661324,0.537818 -1.317532,1.078542 -1.9515,1.649663c-1.249157,1.125332 -1.831806,1.734216 -2.397331,2.348286c-0.558826,0.606794 -1.094143,1.233574 -1.609501,1.872757c-0.509975,0.632504 -1.001606,1.276742 -1.474499,1.931461c-0.931824,1.290099 -1.369217,1.951905 -1.801334,2.607461c-0.427868,0.649106 -0.843056,1.301396 -1.244999,1.956902c-0.398041,0.649145 -0.784889,1.299864 -1.155003,1.956902c-0.729702,1.295394 -1.068024,1.954045 -1.399998,2.607461c-0.328003,0.645592 -0.642525,1.290388 -0.945,1.931461c-0.297497,0.630523 -0.582985,1.254954 -0.855,1.872757c-0.525791,1.194189 -0.768112,1.777543 -1,2.35176c-0.228069,0.564761 -0.445068,1.129333 -0.645,1.700554c-0.200096,0.571689 -0.390011,1.154983 -0.555,1.759249c-0.340836,1.248285 -0.47126,1.920294 -0.600002,2.609203c-0.131405,0.703162 -0.245255,1.423374 -0.344997,2.154555c-0.100296,0.735252 -0.187004,1.474345 -0.255001,2.21325c-0.133797,1.453891 -0.168941,2.166847 -0.201332,2.866645c-0.031883,0.68877 -0.051785,1.36887 -0.064503,2.041047c-0.012592,0.665499 -0.018581,1.325901 -0.020832,3.288686c-0.000748,0.651644 0,1.939295 0,3.179966c0,1.162398 -0.007423,2.69082 0.001335,3.529168c0.010555,1.009983 0.111103,2.526291 0.681332,3.19192c0.745739,0.870507 1.602806,1.082453 2.210667,1.271556c1.425014,0.443321 1.848686,0.429934 2.721001,0.494222c0.926567,0.06828 1.894657,0.070489 2.388332,0.072838c1.497494,0.007137 1.998669,0.001742 3.007999,0.001742c0.510166,0 1.546501,0 3.156002,0c0.555,0 1.119999,0 2.279999,0c0.595001,0 1.200001,0 2.439999,0c1.280003,0 1.934837,0.001065 2.598667,-0.001742c0.671837,-0.002837 2.035572,-0.021609 2.725334,-0.045228c0.693916,-0.023759 1.391556,-0.046034 2.789333,-0.170461c0.700516,-0.062358 2.100338,-0.244663 2.800003,-0.351372c0.700348,-0.106809 1.400192,-0.22595 2.099998,-0.350287c0.700195,-0.124407 2.099823,-0.387144 2.800331,-0.515751c1.408318,-0.258557 2.120628,-0.38165 2.841331,-0.494879c0.729973,-0.114692 1.472023,-0.222845 2.229004,-0.307239c1.561478,-0.174074 2.371826,-0.219212 3.197334,-0.260916c0.837181,-0.042302 1.682625,-0.067613 2.531998,-0.084145c0.849304,-0.016523 1.694664,-0.022932 2.531998,-0.025441c1.634666,-0.004907 2.424835,-0.001742 3.195999,-0.001742c0.753166,0 1.489334,0 2.209503,0c0.70517,0 1.396332,0 2.074501,0c1.966331,0 2.601334,0 3.226334,0c1.220001,0 1.815002,0 2.400002,0c1.695,0 2.239998,0 3.299995,0c0.514999,0 1.514999,0 2.474998,0c0.920006,0 1.801338,0 2.650673,0c0.825333,0 1.634666,0 2.835831,0c0.79567,0 1.57933,0 2.343002,0c1.0905,0 2.099998,0 2.736328,0c0.919502,0 2.119499,0 2.710167,0c0.8535,0 1.889336,0 2.810669,0c0.683998,0 1.684845,-0.027511 2.5,0.027183c0.817467,0.054853 2.078964,0.346883 2.653336,0.816461c0.903549,0.738705 1.238243,1.56719 1.599335,2.442435c0.597008,1.447063 0.903854,2.334093 1.24733,3.264111c0.351295,0.951189 0.84465,2.358658 1.11467,3.256935c0.260307,0.865988 0.598282,2.202052 0.88533,3.67376c0.211578,1.084752 0.305145,1.656939 0.479164,2.826633c0.173302,1.164817 0.367821,2.824891 0.435509,3.821616c0.061813,0.910181 0.083069,2.167803 0.085327,3.353691c0.002228,1.174133 0.000336,2.348286 0,3.131035c-0.000671,1.562054 0.053345,2.698145 -0.085327,3.691168c-0.178192,1.276055 -0.885132,2.352686 -1.435509,2.962307c-0.762733,0.844838 -1.504776,1.342384 -2.165833,1.584648c-0.980545,0.359355 -1.834015,0.356946 -2.714668,0.370522c-0.898766,0.013855 -1.809334,0.001732 -2.755829,0.001732c-1.009499,0 -1.730835,0 -2.500168,0c-0.825333,0 -1.714668,-0.000796 -2.676003,0c-1.03466,0.000876 -1.572121,-0.003185 -2.666664,0.027173c-0.549416,0.015248 -1.633987,0.055161 -2.666664,0.190268c-0.963631,0.126069 -1.850876,0.336004 -2.676003,0.532264c-0.769524,0.183042 -1.836525,0.39443 -2.853333,0.535767c-0.701469,0.097503 -1.465233,0.201216 -2.767998,0.596642c-0.490738,0.148941 -1.511848,0.53296 -2.036003,0.72709c-1.041695,0.385811 -1.539024,0.617026 -2.935501,0.988026c-0.78862,0.209517 -1.514,0.24087 -2.460503,0.535747c-0.91906,0.286317 -1.810905,0.903284 -2.403999,1.374175c-0.6073,0.482159 -1.512672,1.25376 -2.399994,2.08737c-0.608948,0.572077 -1.228989,1.200728 -2.100006,2.376116c-0.621338,0.838468 -0.895996,1.319531 -1.5,2.226517c-0.596077,0.895082 -1.494392,2.105744 -2.095497,2.798793c-0.578491,0.666972 -1.195518,1.261842 -1.937836,2.39873c-0.516525,0.79109 -0.933014,1.716748 -1.355995,2.630085c-0.411621,0.888811 -1.002495,2.105545 -1.599998,3.11712c-0.369751,0.625984 -1.076332,1.8422 -1.453506,2.894266c-0.258942,0.722272 -0.559769,1.882352 -0.856995,3.056246c-0.293396,1.158765 -0.59584,2.26006 -0.778671,3.625257c-0.120689,0.901193 -0.120827,2.094337 -0.121498,3.398939c-0.000542,1.064547 0,2.129094 0,3.430232c0,1.09586 -0.208519,2.436851 0.166664,3.505021c0.320091,0.911306 1.303879,1.614687 1.895836,1.929729c0.692184,0.368392 1.908714,0.585136 2.620163,0.632513c0.774078,0.051538 1.605339,0.050244 2.938835,0.046522c0.463844,-0.001294 1.415489,-0.006072 2.389168,-0.093501c0.494476,-0.044412 1.992111,-0.325294 2.489502,-0.48399c1.010559,-0.322428 2.021584,-0.777653 2.535835,-1.015418c0.522102,-0.241408 2.12989,-1.018662 2.685829,-1.276553c0.565392,-0.26227 1.734161,-0.774726 2.340668,-1.016731c0.61882,-0.246922 1.247559,-0.523405 3.270836,-1.114334c0.706512,-0.206352 1.433754,-0.372433 2.171997,-0.528362c0.744453,-0.157243 1.494087,-0.293145 2.244003,-0.410953c0.744781,-0.116991 1.481636,-0.225682 2.917328,-0.365287c0.689735,-0.067065 2.01442,-0.146533 2.650673,-0.17048c0.620087,-0.02335 1.81649,-0.04272 2.394661,-0.045228c1.12133,-0.004877 2.202667,-0.001732 2.730835,-0.001732c1.036331,0 2.052666,-0.00008 2.555832,0c1.501167,0.000219 2.000443,-0.017916 2.990669,0.027829c0.975365,0.045049 1.467026,0.025799 2.844002,0.407031c0.891243,0.246763 1.723839,0.676666 2.519997,1.111527c0.386925,0.211329 1.82737,1.027839 2.485001,1.391354c0.622284,0.343987 1.525085,0.856005 2.240173,1.684241c0.742615,0.860126 1.105637,1.626233 1.520157,2.315022c0.790192,1.313002 1.402695,2.173068 1.744171,2.785755c0.681534,1.222805 1.034164,2.334292 1.246506,3.123212c0.223083,0.828853 0.617767,2.655147 0.799988,3.625058c0.183167,0.974928 0.360718,1.938389 0.489166,3.330858c0.118195,1.281271 0.119217,2.101444 0.121506,3.680936c0.001694,1.168281 0.029938,1.936876 -0.085327,3.019717c-0.140137,1.316446 -0.458328,2.5244 -1.236343,3.475022c-0.470886,0.575362 -1.354477,1.039823 -2.36499,1.221551c-0.849411,0.152764 -1.475006,0.108372 -2.835007,0.111318c-0.739998,0.001593 -1.519997,0 -2.339996,0c-1.305,0 -1.760002,0 -2.700005,0c-0.979996,0 -1.485001,0 -2.525002,0c-1.079994,0 -2.198662,0 -2.7705,0c-0.578827,0 -1.753494,0 -2.347328,0c-0.596832,0 -2.395668,0 -2.996834,0c-0.603165,0 -1.819504,0 -2.434669,0c-0.621162,0 -2.530663,0 -3.185165,0c-0.661499,0 -1.327003,0 -1.9935,0c-1.323997,0 -1.975502,0 -2.615997,0c-1.236,0 -2.398689,-0.001712 -2.955002,0.005872c-1.072739,0.014651 -1.593941,0.019469 -2.611664,0.105445c-1.00386,0.084822 -2.005104,0.243697 -3.00267,0.471409c-0.501328,0.114423 -1.502419,0.39881 -2,0.574028c-1.507523,0.53087 -2.003693,0.760712 -2.978668,1.252406c-0.482964,0.243558 -1.434425,0.740129 -2.687996,1.722083c-0.399643,0.313052 -1.132637,1.01056 -1.791672,1.766634c-0.646408,0.741582 -1.543678,1.927122 -2.140327,2.712498c-0.592674,0.780161 -1.177116,1.551682 -1.716003,2.348266c-0.781204,1.154764 -1.23954,1.952483 -1.664497,2.766843c-0.427933,0.820074 -1.035027,2.137196 -1.418167,3.086484c-0.396156,0.981556 -0.747185,2.027471 -0.888336,2.576576c-0.432251,1.681553 -0.552872,2.89978 -0.6045,3.516547c-0.105057,1.255094 -0.152298,2.541062 -0.192497,3.188665c-0.121468,1.956902 -0.19622,2.606714 -0.342667,3.898157c-0.144302,1.272552 -0.25071,1.891628 -0.408005,3.710278c-0.099541,1.150842 -0.137306,2.285441 -0.155998,3.4285c-0.009567,0.585036 -0.013062,2.442206 -0.009331,3.790303c0.00193,0.696872 0.014343,2.103893 0.034668,2.800545c0.039352,1.348635 0.092186,2.600125 0.250664,3.691148c0.205528,1.414924 0.387611,2.267684 1.034996,3.568961c0.465546,0.935771 0.873344,1.501737 1.845001,2.289562c0.759537,0.615832 1.368401,0.868945 2.32,1.259373c1.028175,0.421842 1.769875,0.657178 2.534172,0.914969c0.783028,0.264121 1.979622,0.649912 2.78183,0.914969c0.819138,0.270651 1.670166,0.563139 2.111664,0.725139c1.421753,0.521653 1.928726,0.735789 3,1.168261c0.557701,0.225144 1.125206,0.462571 2.29467,0.90627c0.592613,0.224845 1.78849,0.64824 2.988335,1.001065c0.592476,0.174223 1.181335,0.325274 2.330666,0.619256l0.557671,0.13849" fill="none" id="svg_14" opacity="0.85" stroke="#000000" stroke-dasharray="null" stroke-linecap="null" stroke-linejoin="null" stroke-width="20"/>
  <path d="m153.499914,207.5c0,1.297333 0,2.056334 0,3.079334c0,0.737999 0,1.601999 0,2.753998c0,0.474503 0,1.561501 0,2.168003c0,0.644497 0,1.323997 0,2.775997c0,1.556 0,2.365334 0,3.190666c0,0.837334 0,1.682667 0,2.532001c0,0.849335 0,1.694668 0,2.532001c0,1.634666 0,2.424332 0,3.191998c0,0.743668 0,1.461334 0,2.151001c0,0.659668 -0.000026,1.287334 0,1.881001c0.000079,1.558334 -0.005584,2.424641 0.017976,3.202332c0.022374,0.738441 0.113832,1.877117 0.229429,2.712334c0.125105,0.903877 0.303636,1.852669 0.409948,2.338333c0.32784,1.497601 0.471829,1.995617 0.776729,2.991001c0.153892,0.502419 0.497732,1.503647 0.690433,2c0.58682,1.51152 0.822899,2.003342 1.057213,2.498665c0.472079,0.997917 0.724883,1.490372 1.272986,2.444168c0.274045,0.476891 0.855623,1.401764 1.487586,2.271835c0.315145,0.433884 0.978213,1.266457 1.316417,1.674667c0.338138,0.408134 1.371226,1.611168 1.71687,2.010498c0.689564,0.796677 1.031955,1.193947 1.726075,1.964165c0.343406,0.38105 1.377771,1.473534 1.726365,1.814667c0.691855,0.677063 1.049338,1.002785 1.787929,1.646667c0.379502,0.330833 0.770434,0.667183 2.045829,1.695671c0.450574,0.36335 0.911512,0.725937 1.378706,1.082993c0.922666,0.705154 1.37432,1.037445 1.818126,1.341339c1.187217,0.81295 1.877201,1.199074 2.494902,1.492165c0.555175,0.263428 1.605843,0.66687 2.365728,0.951836c0.473304,0.177498 1.443431,0.543823 2.102363,0.599998c0.89729,0.076492 1.582152,-0.013771 2.231379,-0.432503c0.567251,-0.365868 1.088489,-1.018738 1.697169,-1.723495c0.686377,-0.794724 0.932306,-1.08078 1.418831,-1.716003c0.520027,-0.67897 1.289684,-1.857124 1.545411,-2.28933c0.53471,-0.903732 0.794612,-1.389725 1.065562,-1.885338c0.562589,-1.02906 1.147144,-2.110275 1.454796,-2.664162c0.31371,-0.564804 0.633043,-1.140053 1.311821,-2.299339c0.346671,-0.592087 0.70397,-1.186752 1.074478,-1.780495c0.751971,-1.205009 1.14904,-1.801033 1.552311,-2.396004c0.404233,-0.59639 0.817052,-1.184662 1.238891,-1.761002c0.419377,-0.57299 0.840716,-1.1362 1.277726,-1.670998c1.269786,-1.553909 1.721321,-2.003098 2.152576,-2.456337c0.423775,-0.445396 0.848341,-0.873459 1.680616,-1.70533c0.406919,-0.406723 1.203928,-1.204079 1.960666,-2.007668c0.371442,-0.394428 0.731954,-0.791958 1.445314,-1.565331c0.35003,-0.379467 1.387186,-1.473232 1.735135,-1.814335c0.681122,-0.667698 1.021934,-0.982014 1.695154,-1.575001c0.643433,-0.56675 1.564177,-1.32814 2.139315,-1.789501c0.547484,-0.439175 1.081062,-0.852715 1.861715,-1.457165c0.516643,-0.400036 1.282178,-0.991005 1.763053,-1.400002c0.690446,-0.587234 1.301457,-1.205608 1.914627,-1.835999c0.43784,-0.450127 1.186887,-1.193562 1.771824,-1.716667c0.621888,-0.556164 0.946423,-0.837288 1.629705,-1.363335c1.020222,-0.785458 1.371568,-1.009716 2.059775,-1.437332c0.663107,-0.412033 1.309622,-0.778454 2.234974,-1.225334c0.580485,-0.280327 1.174825,-0.525417 1.802033,-0.773998c1.062099,-0.420937 1.885129,-0.732159 2.322442,-0.8955c0.89804,-0.335438 1.347258,-0.50835 2.235264,-0.782501c0.817947,-0.252518 1.548611,-0.424889 2.204765,-0.497334c0.896012,-0.098927 1.781332,-0.075798 2.401561,-0.070663c0.647858,0.005363 1.317734,0.014446 1.998777,0.084c1.037341,0.105942 1.7369,0.25214 2.433351,0.497997c0.731506,0.258236 1.857,0.906757 2.244614,1.181c0.822451,0.581921 1.230318,0.932171 1.657017,1.277336c0.881342,0.712948 1.325029,1.091869 2.265474,1.791664c0.474713,0.353241 0.965992,0.684307 1.958533,1.362667c0.505001,0.345146 1.016877,0.695637 1.526276,1.070999c0.518276,0.381905 1.555116,1.224846 2.067255,1.697334c0.522569,0.482101 1.035682,0.997829 1.544423,1.533001c0.51285,0.539494 1.015665,1.096397 1.513318,1.659c0.495414,0.560081 1.459431,1.676487 1.929772,2.222832c0.465178,0.540329 0.931885,1.075146 1.848625,2.183334c0.469472,0.567516 0.944474,1.156841 1.422716,1.7775c1.014454,1.316532 1.533309,2.043243 2.071285,2.799999c0.55557,0.781502 1.116855,1.59166 1.684224,2.422501c0.575323,0.842484 1.150199,1.696983 1.723046,2.557503c1.138768,1.710655 1.6931,2.558319 2.242744,3.395996c0.545272,0.830994 1.086277,1.658669 1.625965,2.484001c0.539688,0.825333 1.080456,1.653229 1.625965,2.484001c1.105661,1.683815 1.671582,2.537125 2.241585,3.397331c0.571504,0.862457 1.142166,1.722084 1.706243,2.577003c0.556729,0.843758 1.10258,1.672493 1.628546,2.487c1.001285,1.550552 1.459773,2.2892 1.898667,2.99733c0.4218,0.680565 0.824953,1.339722 1.219494,1.973999c0.3834,0.616356 0.758476,1.217606 1.141797,1.794006c0.753156,1.132507 1.15249,1.671822 1.556907,2.20266c0.403153,0.52919 0.817183,1.043686 1.238904,1.545006c0.419509,0.498688 0.845154,0.984604 1.277726,1.454994c0.854504,0.929192 1.291712,1.366867 1.722625,1.800003c0.424671,0.426849 0.846576,0.840469 1.260897,1.245003c0.404997,0.395447 0.801697,0.778122 1.183226,1.154999c0.725264,0.716438 1.060229,1.06427 1.381998,1.400002c0.310813,0.324287 0.609826,0.641579 0.904888,0.945c0.288373,0.296547 0.572926,0.586411 0.866066,0.854996c0.581671,0.532921 0.893405,0.770035 1.208247,0.998665c0.312683,0.227058 0.622995,0.450935 1.256577,0.805336c0.589546,0.329781 1.631075,0.717346 2.45105,0.897331c0.708277,0.155464 1.38479,0.461777 2.089695,0.70134c0.852818,0.289825 1.602788,0.281746 2.435194,0.283997c0.712016,0.001923 1.229844,0.002449 2.369034,0c0.621388,-0.001335 1.278727,0.000122 1.967725,-0.071999c0.726976,-0.076096 1.880836,-0.358353 2.280723,-0.503998c0.852634,-0.310547 1.29453,-0.536179 1.751386,-0.789337c0.994463,-0.551064 2.058827,-1.294716 2.628093,-1.720337c0.596657,-0.446106 1.202295,-0.929207 1.813675,-1.436996c0.61907,-0.514168 1.230476,-1.043976 1.829214,-1.581001c0.587623,-0.527069 1.684514,-1.559082 2.183194,-2.053833c0.475872,-0.472115 0.926143,-0.938637 1.358004,-1.402496c0.426278,-0.45787 0.844785,-0.92511 1.264768,-1.402504c0.430413,-0.489243 1.334695,-1.537498 1.821734,-2.10183c0.509479,-0.590332 1.037947,-1.20266 1.581955,-1.833c0.55607,-0.644325 1.120806,-1.298676 1.690677,-1.959c0.571636,-0.662346 1.706006,-1.977264 2.263024,-2.622002c0.548827,-0.635262 1.090307,-1.261032 1.627282,-1.875c0.530022,-0.606018 1.055936,-1.201866 1.580638,-1.785004c0.519039,-0.576851 1.55559,-1.697243 2.075025,-2.240166c0.515089,-0.538399 1.031389,-1.065033 1.544423,-1.585495c0.508504,-0.515862 1.014454,-1.024445 1.513318,-1.531502c0.494176,-0.502289 1.460116,-1.503059 1.929482,-2.003998c0.463862,-0.495079 0.917135,-0.988785 1.368329,-1.468506c0.443213,-0.471252 0.880921,-0.929413 1.321763,-1.360497c0.430386,-0.420845 1.290053,-1.186462 1.730236,-1.507004c0.854978,-0.622597 1.30417,-0.878876 2.219435,-1.332497c0.463941,-0.229942 0.942367,-0.448143 2.477651,-1.03167c0.538714,-0.204758 1.092308,-0.396057 1.655727,-0.578995c0.568054,-0.184441 1.137214,-0.378754 2.292233,-0.650673c1.130972,-0.266258 1.691968,-0.339035 2.245035,-0.399994c1.10071,-0.12133 1.659519,-0.133133 2.225493,-0.149338c0.577878,-0.016548 1.171427,-0.020943 2.418812,-0.021332c0.659789,-0.000206 1.343097,-0.000526 2.046685,0.027c0.722236,0.028252 1.461064,0.081146 2.209822,0.189003c0.762743,0.109871 1.548822,0.219284 3.079312,0.783997c0.788686,0.291008 1.566336,0.698563 2.341853,1.169998c0.802908,0.488083 1.605026,1.064156 2.411754,1.709999c0.841467,0.67366 1.702977,1.409752 3.44525,3.120003c0.929804,0.912727 1.861399,1.901375 2.804003,2.933998c0.960856,1.052612 1.913311,2.141884 2.850621,3.258003c0.934913,1.113281 1.858159,2.220909 3.551101,4.474663c0.810599,1.07914 1.567021,2.158241 2.284911,3.228004c0.703141,1.047791 1.371621,2.099922 2.013026,3.155998c0.637322,1.049347 1.261107,2.107918 2.462533,4.282669c0.610405,1.104935 1.210697,2.234802 1.808486,3.380997c0.602451,1.155136 1.19758,2.325035 1.785203,3.507004c0.589309,1.185371 1.175615,2.375031 2.303742,4.778664c0.561891,1.19722 1.109401,2.401199 1.651855,3.609001c0.543823,1.210869 1.082484,2.431839 1.620776,3.663002c0.542822,1.241508 1.086672,2.498436 2.193255,5.061333c0.565368,1.30938 1.137557,2.636284 1.717884,3.976494c0.585358,1.351799 1.175878,2.711609 1.772245,4.0755c0.597789,1.367111 1.195078,2.735062 2.407303,5.447998c0.60174,1.346695 1.207141,2.682739 1.816256,4.009506c0.607192,1.322571 1.219652,2.638062 1.839565,3.946503c0.619676,1.307907 1.241459,2.615555 2.529273,5.210663c0.646593,1.302979 1.307673,2.59993 1.972913,3.895493c0.665003,1.295105 1.334879,2.584045 2.003965,3.868515c0.66632,1.27919 1.333036,2.548706 2.639734,5.069321c0.645066,1.24437 1.280755,2.484299 1.92245,3.714005c0.641326,1.228973 1.290237,2.456879 1.961219,3.677994c0.676776,1.231628 1.360559,2.47998 2.876827,4.941345c0.780073,1.266312 1.613139,2.525604 2.470013,3.7995c0.871466,1.295532 1.772377,2.597107 2.687458,3.916489c0.927249,1.336945 1.876991,2.679718 3.760566,5.450668c0.954798,1.404648 1.901327,2.834702 2.851911,4.276505c0.956115,1.450195 1.911546,2.912064 2.875194,4.375504c0.966387,1.467575 1.927928,2.944122 3.910165,5.847992c0.990302,1.450775 1.996617,2.88385 3.020157,4.296005c1.02138,1.40921 2.059564,2.79628 3.121189,4.151993c1.058411,1.351654 2.117455,2.697769 4.358908,5.218674c1.114722,1.253693 2.26658,2.450714 3.424127,3.623993c1.149751,1.165359 2.309458,2.295547 3.462949,3.408005c1.140743,1.100174 2.280381,2.167908 4.47627,4.301331c1.070211,1.03978 2.111608,2.0784 3.135412,3.105011c1.010635,1.013412 2.005835,2.021362 2.99561,3.014999c0.982559,0.986359 1.954635,1.974976 3.937767,3.87999c0.991408,0.952377 1.997881,1.885147 3.016312,2.800507c1.018378,0.915329 2.04924,1.81131 3.093956,2.683502c1.043873,0.871506 2.090327,1.738144 4.246183,3.349335c1.075531,0.803802 2.169973,1.569626 3.275213,2.309998c1.104187,0.73967 2.222174,1.449905 3.352909,2.130005c1.130472,0.679947 2.26658,1.350159 4.591366,2.559998c1.162867,0.605164 2.339009,1.16777 3.514729,1.709991c1.166028,0.537735 2.326946,1.04567 3.475854,1.529999c1.128101,0.475571 2.235132,0.930344 4.372709,1.759995c1.018852,0.395447 2.015896,0.76889 3.00209,1.123505c0.982717,0.353363 1.976969,0.694794 2.994294,1.024506c1.04735,0.339447 2.138104,0.684021 4.503924,1.35199c1.285865,0.363068 2.636573,0.71936 4.033847,1.076996c1.426561,0.365112 2.869558,0.719696 4.313449,1.059021c1.426614,0.335266 2.820622,0.663727 5.461304,1.197327c1.212435,0.244995 2.356866,0.450348 3.439613,0.623993c1.026648,0.164642 2.007679,0.299957 2.950309,0.40802c0.91034,0.10437 1.797767,0.194489 3.535009,0.301331c0.8623,0.05304 1.722546,0.084747 2.577471,0.109497c0.847024,0.024536 1.683777,0.038239 2.507571,0.046478c0.808202,0.008087 1.598337,0.01001 3.113815,0.010681c0.72192,0.000305 1.425719,0 2.119193,0c0.690841,0 1.386897,0 2.095858,0c0.729716,0 1.487876,0.000458 3.120768,0c0.887795,-0.000244 1.82047,0.000244 2.791071,-0.013489c1.001732,-0.01416 2.027854,-0.040344 3.070673,-0.094513c1.053881,-0.054749 2.114663,-0.102875 4.207045,-0.391998c1.030072,-0.142334 2.04313,-0.345093 3.044757,-0.571503c0.998414,-0.225677 1.990665,-0.485779 2.982705,-0.760498c0.997624,-0.276245 1.998987,-0.576355 4.041274,-1.167999c1.043241,-0.302216 2.10102,-0.600922 3.169071,-0.899994c1.074583,-0.300934 2.153116,-0.599548 3.231229,-0.899994c1.074899,-0.299561 2.144004,-0.593658 4.243865,-1.200012c1.028123,-0.296875 2.040496,-0.598633 3.040911,-0.899994c0.991513,-0.298676 1.975547,-0.599731 2.955472,-0.899994c0.978292,-0.299744 1.956689,-0.603088 3.928549,-1.200012c0.995569,-0.301392 1.995195,-0.599106 2.992977,-0.895493c0.990671,-0.294281 1.969542,-0.583374 2.930872,-0.868515c0.939048,-0.278534 1.851285,-0.546646 3.569564,-1.069321c0.7993,-0.243149 1.558092,-0.479889 2.281013,-0.705002c0.690103,-0.21489 1.35055,-0.421509 1.985819,-0.615005c0.612143,-0.186462 1.203849,-0.370346 2.349755,-0.679993c0.555833,-0.150192 1.105398,-0.284042 1.64801,-0.4095c0.535606,-0.12384 1.066734,-0.237946 1.593596,-0.346512c0.522858,-0.107742 1.043557,-0.2099 2.080477,-0.41066c0.517169,-0.100128 1.030967,-0.199188 1.537918,-0.295502c0.49652,-0.09433 0.979135,-0.184799 1.444735,-0.268494c0.444582,-0.079926 0.864512,-0.158005 1.620197,-0.269333c0.328222,-0.048355 0.625839,-0.083786 0.895854,-0.109512c0.245521,-0.023392 0.470657,-0.036331 0.678357,-0.046494l0.193899,-0.006165l0.183522,-0.003174" fill="none" id="svg_18" opacity="0.85" stroke="#113f47" stroke-dasharray="null" stroke-linecap="null" stroke-linejoin="null" stroke-width="28"/>
  <path d="m476.5,295.5c0,3.26001 0,3.684998 0,4.625c0,1.059998 0,1.63501 0,2.875c0,0.66684 0,1.374664 0,2.134491c0,0.822845 0,1.719666 0,2.701508c0,1.07782 -0.000732,2.262665 0,4.997345c0.000427,1.56781 -0.000015,3.262726 0.022507,5.071503c0.023773,1.909912 0.068222,3.908203 0.157486,5.980499c0.09198,2.135468 0.179642,4.325287 0.653336,8.781311c0.239929,2.25705 0.574646,4.507935 0.943512,6.745514c0.365936,2.219849 0.776306,4.402191 1.204498,6.538483c0.417709,2.084045 0.848465,4.098724 1.685318,7.88269c0.387482,1.752136 0.761444,3.412262 1.119019,4.990479c0.341156,1.505798 0.671356,2.947327 0.992981,4.333496c0.311096,1.34082 0.615082,2.644867 1.221344,5.176025c0.298065,1.244415 0.596802,2.472443 0.895508,3.677979c0.291992,1.178467 0.58078,2.322754 0.8685,3.426025c0.276093,1.058716 0.536072,2.068176 1.069336,3.895996c0.238495,0.817413 0.475037,1.565643 0.704987,2.248505c0.21048,0.625 0.415253,1.190857 0.61499,1.699493c0.180725,0.460205 0.346558,0.87442 0.680023,1.552002c0.139435,0.283295 0.276428,0.526154 0.404999,0.73349c0.111908,0.18045 0.21756,0.330902 0.315002,0.454498c0.082947,0.105164 0.158752,0.189209 0.279999,0.312012c0.044861,0.045441 0.080627,0.082764 0.113983,0.10498c0.02597,0.017303 0.053741,0.023834 0.078003,0.015015c0.029327,-0.010651 0.059631,-0.039032 0.141327,-0.119995c0.055695,-0.055176 0.12262,-0.124573 0.195007,-0.217499c0.088287,-0.113373 0.184174,-0.259308 0.285004,-0.442505c0.120056,-0.218109 0.254242,-0.481018 0.519989,-1.17334c0.164215,-0.427856 0.326508,-0.928101 0.503998,-1.501495c0.201752,-0.651825 0.415466,-1.393585 0.64801,-2.230499c0.260437,-0.937317 0.543793,-1.984009 1.181335,-4.434662c0.366608,-1.409241 0.751221,-2.919525 1.148987,-4.5c0.407593,-1.619507 0.812164,-3.249329 1.203003,-4.860016c0.378387,-1.559357 0.74408,-3.035828 1.314667,-5.639984c0.234039,-1.068207 0.416473,-1.99765 0.561005,-2.815521c0.129517,-0.732941 0.231934,-1.413483 0.326996,-2.068481c0.095581,-0.658661 0.183075,-1.352539 0.445343,-2.949341c0.157196,-0.957153 0.350525,-2.008514 0.5625,-3.131989c0.221222,-1.172546 0.455994,-2.3685 0.69751,-3.564026c0.236847,-1.172455 0.463593,-2.298126 0.906647,-4.303986c0.186096,-0.84259 0.358704,-1.573975 0.514496,-2.204987c0.133881,-0.542267 0.255188,-1.003662 0.361511,-1.39502c0.090179,-0.33194 0.175598,-0.611725 0.29068,-1.06665c0.047943,-0.189545 0.082916,-0.361298 0.113983,-0.514496c0.027588,-0.136108 0.049774,-0.25708 0.078003,-0.361511c0.024811,-0.091888 0.042358,-0.182251 0.141327,-0.29068c0.047913,-0.05246 0.117218,-0.085388 0.190521,-0.109497c0.077515,-0.025513 0.163452,-0.038422 0.253479,-0.046478c0.093658,-0.008392 0.190674,-0.010345 0.389343,-0.010681c0.100342,-0.000183 0.20285,0.000031 0.30899,0.009003c0.11261,0.009521 0.233643,0.028748 0.363007,0.062988c0.143555,0.038025 0.303986,0.087311 0.661346,0.261353c0.213196,0.103821 0.442444,0.238281 0.685486,0.403503c0.268127,0.182281 0.562317,0.38916 1.147339,0.957977c0.332825,0.323578 1.362488,1.608368 1.72049,2.135834c0.382538,0.563629 0.764954,1.178375 1.154999,1.835999c0.410217,0.69162 0.824585,1.424835 1.244995,2.196014c0.889709,1.63208 1.336578,2.501587 1.801361,3.397339c0.479584,0.924255 0.969482,1.879944 1.474487,2.86499c0.520325,1.014923 1.054688,2.060852 1.609497,3.13501c1.157898,2.24176 1.770081,3.403778 2.393341,4.589325c0.630737,1.199799 1.2659,2.404358 1.893005,3.609009c0.62088,1.192688 1.229248,2.365692 1.802979,3.518982c1.085785,2.182526 1.55719,3.212891 1.998688,4.193329c0.419983,0.932648 0.80658,1.828033 1.17749,2.683502c0.355743,0.820526 0.693329,1.612793 1.042511,2.3685c0.670715,1.451477 1.035522,2.13681 1.401337,2.802673c0.356995,0.649811 0.720825,1.271759 1.076996,1.870514c0.34256,0.575897 0.678528,1.121338 0.987,1.645477c0.561768,0.954529 0.794312,1.391754 0.998657,1.800018c0.188354,0.376282 0.349731,0.728577 0.4935,1.054504c0.13208,0.299469 0.24585,0.577698 0.35849,0.829498c0.198517,0.443817 0.299805,0.634033 0.404022,0.802673c0.09613,0.155579 0.196045,0.292694 0.299988,0.409485c0.096466,0.108429 1.041351,0.59967 1.5,-0.104156c0.465454,-0.714264 0.508179,-1.581726 0.600006,-2.063995c0.219635,-1.153778 0.404633,-2.602142 0.499817,-3.442352c0.103912,-0.917114 0.2005,-1.910889 0.28952,-2.979004c0.09494,-1.139221 0.179901,-2.34903 0.253479,-3.626984c0.077362,-1.343384 0.19516,-4.220886 0.23584,-5.75c0.042114,-1.582886 0.069946,-3.213989 0.096008,-4.886993c0.026642,-1.708984 0.048828,-3.448059 0.078003,-5.211029c0.02948,-1.781006 0.109772,-5.373108 0.168671,-7.170654c0.058472,-1.783813 0.129059,-3.539429 0.203979,-5.252991c0.072479,-1.657776 0.148956,-3.245361 0.222015,-4.748993c0.068298,-1.405701 0.18692,-3.866974 0.231506,-4.900024c0.039307,-0.91095 0.070129,-1.71814 0.106476,-2.438995c0.032928,-0.653107 0.069824,-1.256531 0.124512,-1.826996c0.053467,-0.557617 0.21814,-1.701965 0.333008,-2.319336c0.12085,-0.649384 0.263184,-1.317505 0.418488,-1.994995c0.155701,-0.67923 0.32074,-1.347534 0.490509,-1.994995c0.162354,-0.619171 0.477234,-1.726349 0.626648,-2.195679c0.132385,-0.415894 0.258911,-0.779449 0.385529,-1.09198c0.110443,-0.272644 0.218933,-0.504944 0.331482,-0.696014c0.097748,-0.165985 0.299774,-0.413544 0.40451,-0.498322c0.095947,-0.077667 0.197876,-0.134033 0.299988,-0.171021c0.098267,-0.035583 0.199677,-0.053619 0.300018,-0.062988c0.099731,-0.009308 0.299988,-0.009979 0.40033,-0.008667c0.102356,0.001343 0.209045,0.005402 0.320984,0.020996c0.12088,0.016815 0.251923,0.046631 0.393005,0.092987c0.157867,0.05188 0.749298,0.298492 1.479004,0.800354c0.618286,0.425232 1.293457,1.015442 2.040009,1.751984c0.417145,0.41156 1.279144,1.355164 1.727997,1.866669c0.46225,0.526764 0.925507,1.072052 1.390503,1.627502c0.467041,0.557892 1.385437,1.669312 2.262817,2.7565c0.430115,0.532959 0.852081,1.065857 1.264496,1.603516c0.412964,0.538391 0.841644,1.071594 2.020844,2.8125c0.408844,0.603607 0.802429,1.234467 1.200012,1.876495c0.402496,0.649963 0.800446,1.31073 1.199982,1.975494c0.400452,0.666229 0.794281,1.33551 1.600006,2.64801c0.397034,0.646729 0.797455,1.280762 1.195496,1.904999c0.392639,0.615753 0.783875,1.219849 1.547333,2.399994c0.371948,0.574951 1.092072,1.694031 1.435516,2.239838c0.663025,1.053772 0.975311,1.564301 1.279999,2.059326c0.580597,0.943298 0.84787,1.394958 1.619995,2.619171c0.455811,0.722656 0.863434,1.371582 1.434998,2.169983c0.583344,0.81485 0.855347,1.644043 1.511993,2.337341c0.480133,0.506927 0.946777,-0.574432 0.963989,-1.253326c0.011719,-0.462708 0.010681,-2.477325 0.010681,-3.390015c0,-1.028656 0,-2.159332 0,-3.377991c0,-1.292664 0,-2.645325 0,-4.044006c0,-1.430664 0,-4.332001 0,-5.776154c0,-1.429169 0,-2.838348 0,-4.222504c0,-1.354156 0,-2.67334 0,-3.952515c0,-1.234161 0,-3.547485 0,-4.618164c0,-1.014648 0,-1.977325 0,-2.891998c0,-0.870667 0,-1.701324 0,-2.496002c0,-0.762665 0,-2.207977 0,-2.897644c0,-0.667664 0,-1.31134 0,-1.929016c0,-0.589661 0,-1.149323 0,-1.677002c0,-0.493652 0,-1.371002 0,-1.751495c0,-0.343506 0,-0.652985 0,-0.931488c0,-0.250519 0,-0.476013 0,-0.679504c0,-0.184509 0,-0.508514 0,-0.653503c0,-0.13501 -0.014465,-0.260925 0,-0.375c0.083984,-0.662506 0.866943,-0.400848 1.543488,0.461487c0.523254,0.666931 0.762115,1.113464 1.060669,1.579346c0.680054,1.061279 1.050964,1.66275 1.895844,2.979156c0.462372,0.720428 0.954132,1.473724 1.46701,2.257507c0.529755,0.80954 1.074829,1.638214 1.628998,2.482513c0.560547,0.854034 1.126099,1.71106 2.237335,3.426666c0.547028,0.844543 1.084534,1.684143 1.613983,2.52298c0.529236,0.838501 1.055023,1.683899 1.578003,2.541016c0.529724,0.868195 1.066406,1.752808 2.141327,3.602661c0.558533,0.961182 1.116272,1.947845 1.681519,2.944489c0.566772,0.999359 1.128784,1.994263 1.690491,2.971497c0.549377,0.95578 1.073944,1.887115 2.127991,3.584015c0.481812,0.775665 0.95462,1.487732 1.410004,2.143494c0.424988,0.61203 0.835999,1.172058 1.230011,1.684509c0.366302,0.476379 0.713867,0.913147 1.359985,1.671997c0.287476,0.337646 0.559967,0.643921 0.814514,0.924011c0.234924,0.258484 0.455444,0.4935 0.661499,0.707977c0.190338,0.198151 0.368896,0.37912 0.690674,0.701355c0.144806,0.14502 0.627258,1.040833 1.130646,0.662659c0.796814,-0.598663 0.036011,-1.570679 0.036011,-2.353333c0,-1.078674 0,-1.7565 0,-2.541351c0,-1.934662 0,-3.100983 0,-4.385315c0,-1.380341 0,-2.834656 0,-4.341003c0,-1.536346 0,-3.080658 0,-4.610992c0,-2.930664 0,-4.29184 0,-5.580017c0,-1.222168 0,-2.385315 0,-3.49649c0,-1.066162 0,-2.09433 0,-3.091492c0,-1.929352 0,-2.873505 0,-3.802673c0,-0.90918 0,-1.793335 0,-2.647491c0,-0.819183 0,-1.598358 0,-2.33252c0,-1.313324 0,-1.884003 0,-2.398651c0,-0.462677 0,-0.87735 0,-1.248016c0,-0.330658 0,-0.625336 0,-0.888c0,-0.445313 0,-0.635498 0,-0.806671c0,-0.153137 0,-0.289307 0,-0.409485c0,-0.105164 -0.161774,-0.257721 0.000336,-0.44101c0.482697,-0.545746 1.576233,0.226074 2.333008,1.045166c0.335236,0.362854 0.998962,1.348602 1.370667,1.928009c0.40506,0.631378 0.826294,1.323425 1.276489,2.065491c0.479218,0.789886 1.518097,2.507355 2.084167,3.426331c0.591187,0.959747 1.211487,1.955597 1.854004,2.989502c0.664825,1.069763 1.350891,2.173737 2.052002,3.313507c0.720245,1.170868 2.198151,3.609222 2.950317,4.87384c0.762543,1.282013 1.522736,2.57663 2.28302,3.869995c0.754395,1.283295 1.49649,2.547943 2.229004,3.779999c0.710205,1.19458 2.061523,3.423462 2.70282,4.436157c0.605682,0.956451 1.195068,1.854858 1.777496,2.698517c0.55954,0.810516 1.119965,1.582458 1.6875,2.320496c0.559265,0.727264 1.727631,2.135773 2.341156,2.830505c0.615814,0.697327 1.242493,1.376678 1.866028,2.036987c0.605865,0.641632 1.197327,1.248016 1.757996,1.821014l0.524658,0.531006" fill="none" id="svg_24" opacity="0.85" stroke="#d1971b" stroke-dasharray="null" stroke-linecap="null" stroke-linejoin="null" stroke-width="16"/>
 </g>
</svg>
