<?xml version="1.0"?>
<svg width="640" height="480" xmlns="http://www.w3.org/2000/svg" xmlns:svg="http://www.w3.org/2000/svg">
 <!-- Created with SVG-edit - https://github.com/SVG-Edit/svgedit-->
 <g class="layer">
  <path d="m-2.5,39.499989c0.653702,0 1.386805,0 2.150364,0c0.699385,0 1.231674,0 2.020929,0c0.723314,0 1.628273,0 2.137856,0c0.538951,0 1.100743,0 1.67885,0c1.179057,0 2.345061,0 2.908621,0c0.551323,0 1.094488,0 1.633575,0c1.082252,0 1.633576,0 2.197135,0c1.180144,0 1.803936,0 2.450567,0c0.667842,0 1.355262,0 2.060631,0c0.721683,0 1.458049,0 2.207468,0c1.531468,0 2.309848,-0.000775 3.092304,0.001245c0.78246,0.00202 1.560863,0.006256 2.331057,0.018178c0.758016,0.011733 1.499871,0.026988 2.220928,0.060139c1.365558,0.062785 2.002264,0.120832 2.608283,0.187711c0.579316,0.06393 1.133142,0.142723 1.662941,0.237749c0.511146,0.091682 1.004353,0.196012 1.479395,0.321656c0.920617,0.243493 1.364304,0.396281 1.799041,0.56065c0.861569,0.325746 1.284689,0.514826 2.105361,0.961092c0.414923,0.225628 1.239488,0.738267 2.044181,1.358582c0.416986,0.321443 0.830957,0.678164 1.239557,1.071261c0.861824,0.829127 1.293228,1.304667 2.158388,2.369708c0.461406,0.568005 0.915853,1.18365 1.368041,1.833453c0.463877,0.666601 0.917303,1.365144 1.353359,2.093577c0.44078,0.736325 0.882693,1.482594 1.629361,3.065548c0.37173,0.788077 0.699015,1.604475 1.009512,2.436213c0.31509,0.844047 0.609445,1.718614 0.899385,2.620819c0.298917,0.930132 0.591751,1.899905 1.218212,3.955625c0.333911,1.09572 0.684424,2.237954 1.052341,3.426359c0.382559,1.235708 0.782402,2.517631 1.19918,3.845918c0.4316,1.375519 0.879509,2.797657 1.827322,5.780535c0.496275,1.561842 1.010337,3.167438 1.527113,4.820678c0.529665,1.694475 1.062947,3.431822 1.585853,5.21507c0.533393,1.819006 1.079434,3.672242 2.05356,7.523388c0.498416,1.970447 0.956526,3.982847 1.398634,6.02481c0.446633,2.062862 0.868521,4.151559 1.273822,6.259753c0.407511,2.119689 0.803208,4.251144 1.542349,8.537782c0.369383,2.142224 0.720618,4.282207 1.068243,6.412196c0.345223,2.115286 0.681645,4.212761 1.016859,6.286321c0.330734,2.045847 0.649623,4.061135 1.313928,7.96844c0.321186,1.889143 0.648447,3.730371 0.978919,5.524125c0.32225,1.749126 0.648123,3.45085 0.978925,5.104588c0.321939,1.609451 0.637866,3.174231 1.305227,6.153474c0.319132,1.424678 0.648957,2.804059 0.975253,4.146594c0.318759,1.311521 0.639397,2.593422 0.953221,3.852917c0.309156,1.240744 0.622344,2.464474 1.198638,4.897906c0.286532,1.209901 0.55733,2.418679 0.823517,3.619362c0.26351,1.188605 0.518313,2.363409 0.77212,3.518667c0.24899,1.133335 0.485626,2.243609 0.987626,4.360872c0.23915,1.00864 0.484916,1.977759 0.73052,2.908922c0.236381,0.896194 0.473458,1.753792 0.708494,2.573264c0.224904,0.784133 0.444038,1.531134 0.87233,2.908908c0.197339,0.634812 0.389331,1.229932 0.571446,1.785916c0.169294,0.516818 0.328593,0.992009 0.475997,1.425076c0.133015,0.390786 0.252992,0.73737 0.448127,1.295345c0.073659,0.210622 0.132069,0.379988 0.182327,0.510459c0.038264,0.099343 0.068269,0.173235 0.10156,0.216768c0.024441,0.031953 0.055317,0.046492 0.123997,0.049721c0.04483,0.002106 0.097938,0.000185 0.159075,0.004197c0.069408,0.004552 0.147094,0.013344 0.232497,0.029363c0.094129,0.017655 0.19783,0.038354 0.424197,0.121835c0.12785,0.047146 0.263162,0.110497 0.407479,0.185996c0.157095,0.082186 0.324472,0.180662 0.502922,0.295085c0.193947,0.124368 0.402569,0.263829 0.8571,0.606644c0.254815,0.192185 0.522103,0.407715 0.807609,0.634926c0.301849,0.240213 0.618958,0.493387 0.954447,0.752408c0.349716,0.270004 0.711892,0.553152 1.501016,1.098921c0.412701,0.285425 0.844441,0.561916 1.289724,0.834907c0.453144,0.2778 0.918063,0.547903 1.392516,0.809755c0.477827,0.263715 0.959308,0.525155 1.940443,0.996974c0.4872,0.234295 0.976641,0.451191 1.464713,0.657304c0.483267,0.204078 0.96461,0.394997 1.442687,0.573397c0.471236,0.175853 0.936298,0.345304 1.851249,0.633987c0.443883,0.140045 0.883676,0.265295 1.32032,0.381795c0.434609,0.11596 0.871614,0.222843 1.312976,0.323068c0.447013,0.101506 0.903175,0.199825 1.853427,0.382876c0.496716,0.095687 1.007119,0.187035 1.527113,0.279706c0.526367,0.093809 1.056188,0.186196 1.585853,0.279706c0.526485,0.092956 1.046927,0.182497 2.053567,0.372932c0.481985,0.091177 0.94948,0.18574 1.405972,0.275509c0.447368,0.087976 0.888026,0.173833 1.325212,0.250328c0.434883,0.076083 0.86999,0.154542 1.755539,0.251111c0.452185,0.049309 0.913519,0.07927 1.38272,0.102103c0.477105,0.023218 0.962588,0.035779 1.456149,0.043348c0.501677,0.007682 1.011557,0.009475 2.055739,0.009944c0.533916,0.000242 1.073558,0.000156 1.616437,-0.004197c0.543725,-0.004353 1.085857,-0.012306 1.623793,-0.029363c0.531539,-0.016858 1.054962,-0.030331 2.062261,-0.121835c0.481997,-0.043789 0.948099,-0.106087 1.398628,-0.1818c0.438132,-0.073636 0.862832,-0.161925 1.273828,-0.265721c0.401822,-0.101477 0.795453,-0.206682 1.542336,-0.484823c0.365749,-0.136204 0.721739,-0.293705 1.071928,-0.461506c0.350314,-0.167858 0.697005,-0.350924 1.042551,-0.545427c0.350077,-0.19705 0.702918,-0.405112 1.420524,-0.857755c0.372458,-0.234935 0.750717,-0.483144 1.137987,-0.737015c0.395872,-0.259519 0.799163,-0.526122 1.211416,-0.795756c0.419809,-0.27457 0.845866,-0.555969 1.729437,-1.108865c0.450791,-0.282082 0.907644,-0.558174 1.364372,-0.830724c0.4515,-0.269434 0.895669,-0.529636 1.327652,-0.780363c0.415066,-0.24091 0.810291,-0.467538 1.522768,-0.875168c0.310519,-0.17766 0.592308,-0.338049 0.846775,-0.488081c0.232771,-0.137242 0.446173,-0.266831 0.64119,-0.395779c0.184536,-0.122006 0.362413,-0.240868 0.68742,-0.514656c0.166002,-0.139846 0.327161,-0.294601 0.485794,-0.457309c0.160114,-0.16423 0.315074,-0.336754 0.463761,-0.51605c0.148002,-0.178456 0.293677,-0.357439 0.546015,-0.735934c0.122186,-0.183279 0.231563,-0.371452 0.334057,-0.559412c0.100888,-0.185029 0.194071,-0.372135 0.282673,-0.559398c0.087868,-0.185698 0.171242,-0.372661 0.335003,-0.745878c0.081694,-0.186167 0.162579,-0.37141 0.241061,-0.555215c0.077038,-0.180434 0.150965,-0.357126 0.219029,-0.530034c0.065412,-0.166179 0.130078,-0.324021 0.219713,-0.624043c0.040081,-0.134141 0.068636,-0.261766 0.089337,-0.381795c0.019406,-0.112517 0.038127,-0.220168 0.046629,-0.98565c0.009311,-0.839033 0.198253,-1.84036 -0.208834,-2.251291c-0.523074,-0.528014 -1.344357,-0.260088 -1.891492,-0.264797c-0.953065,-0.008209 -1.6639,-0.001238 -2.420392,-0.001238c-0.391291,0 -1.191836,0 -2.413583,0c-0.409788,0 -1.24078,0 -1.665257,0c-0.875044,0 -1.328884,-0.001451 -2.774428,0.000156c-0.510116,0.000569 -1.030054,0.002205 -1.556477,0.009788c-0.529734,0.007625 -1.586127,0.036932 -2.105778,0.06961c-1.00786,0.063393 -1.957079,0.178229 -2.4095,0.261838c-0.878168,0.162295 -1.308171,0.262421 -2.130512,0.564846c-0.827643,0.304375 -1.634835,0.73848 -2.034254,0.976005c-0.401249,0.23862 -1.18123,0.767132 -1.54561,1.069714c-1.072712,0.890788 -1.378849,1.247459 -1.965182,1.96211c-0.2972,0.362234 -0.864065,1.161276 -1.150783,1.589961c-0.298569,0.446411 -1.255493,1.945536 -1.598898,2.496199c-0.353314,0.566554 -0.708581,1.147006 -1.054787,1.741145c-0.345584,0.593086 -0.68152,1.184507 -0.981371,1.783113c-0.569255,1.13645 -0.987471,2.236979 -1.150236,2.777769c-0.161346,0.536081 -0.304096,1.086316 -0.498167,2.257508c-0.103938,0.627201 -0.262284,2.019073 -0.340853,2.792521c-0.083698,0.823953 -0.162653,1.694995 -0.236156,2.608232c-0.076453,0.949885 -0.145998,1.932775 -0.206805,2.943876c-0.062176,1.033849 -0.160014,3.153475 -0.19198,4.230672c-0.032264,1.087099 -0.051098,2.185693 -0.052616,3.296294c-0.001531,1.123647 0.014041,2.261491 0.050176,3.413776c0.036646,1.168688 0.166139,3.55732 0.265259,4.777949c0.100863,1.24211 0.229796,2.504877 0.401361,3.785783c0.175163,1.307808 0.392972,2.638278 0.665662,3.987172c0.279512,1.38261 0.999918,4.220927 1.450572,5.672692c0.463674,1.493705 0.997541,3.006971 1.599309,4.535374c0.618498,1.570912 1.308918,3.156761 2.069195,4.753564c0.780641,1.639568 2.547047,4.957173 3.527111,6.634413c1.004711,1.719407 2.079252,3.445557 3.19985,5.194072c1.14573,1.787751 2.341661,3.592175 3.566943,5.429036c1.249157,1.872654 3.825207,5.713223 5.136901,7.68919c1.32815,2.000778 2.66225,4.023065 4.012344,6.045809c1.350904,2.023967 2.704484,4.035386 4.071097,6.012206c1.351626,1.955139 4.052065,5.713308 5.406093,7.487971c1.325287,1.737019 2.659275,3.406918 4.002561,5.013681c1.323681,1.583317 2.663108,3.112659 4.017249,4.594115c1.344556,1.470957 4.09018,4.310752 5.492567,5.68901c1.40067,1.376578 2.819799,2.718416 4.25709,4.016521c1.427021,1.28883 2.865532,2.530741 4.315818,3.714466c1.431229,1.168161 4.298565,3.330409 5.732943,4.309927c1.412445,0.964552 2.838483,1.863236 4.281562,2.696336c1.44034,0.831535 2.911165,1.605254 4.413706,2.327132c1.520254,0.730414 4.695358,2.074584 6.355922,2.702084c1.699326,0.642153 3.45194,1.248284 5.253137,1.827841c1.840133,0.592104 3.729435,1.153736 5.664282,1.6936c1.973223,0.550592 6.051827,1.593105 8.152651,2.09251c2.130312,0.506404 4.287051,0.991383 6.460881,1.458637c2.179655,0.468505 4.360729,0.914902 6.534309,1.341183c2.155432,0.422724 6.386705,1.204097 8.447958,1.56229c2.023064,0.351564 4.014261,0.68082 5.977527,0.988766c1.937499,0.303905 3.85533,0.588178 5.757303,0.854497c1.888629,0.264469 5.646743,0.749733 7.522601,0.973828c1.870157,0.223412 3.731003,0.432455 5.577385,0.629321c1.826217,0.194703 3.628335,0.375976 5.401201,0.545442c1.738187,0.166136 5.092649,0.464465 6.701132,0.596685c1.566509,0.128778 3.098888,0.246402 4.604603,0.349629c1.485724,0.101861 2.959399,0.191175 4.428394,0.265721c1.471061,0.074632 4.450327,0.186366 5.973195,0.223924c1.555331,0.038354 3.151566,0.062995 4.796719,0.079696c1.702214,0.017271 3.469727,0.025095 5.310632,0.029392c1.922512,0.004467 6.044843,0.00239 8.256539,0.004809c2.298978,0.002504 4.666517,0.008934 7.083723,0.039151c2.448325,0.030615 4.909122,0.080892 7.362699,0.17342c2.429105,0.09159 7.136675,0.3873 9.378618,0.612846c2.164394,0.21775 4.24753,0.48865 6.249184,0.799953c1.927391,0.299751 3.775242,0.638169 5.544374,1.001342c1.697334,0.348434 4.863339,1.093046 6.334973,1.475139c1.407429,0.36542 2.751499,0.740856 4.036841,1.128583c1.238888,0.373728 2.431022,0.761086 3.581632,1.162186c1.121581,0.390999 3.282789,1.213856 4.332672,1.644946c1.036315,0.425541 2.051096,0.865394 3.042002,1.318819c0.972907,0.445202 1.919275,0.901558 2.836417,1.369124c0.894935,0.45627 2.590153,1.386935 3.386254,1.860363c0.770085,0.457949 1.50452,0.921389 2.202583,1.388699c0.672346,0.450096 1.308918,0.902269 1.908894,1.355182c0.574632,0.433764 1.619238,1.290537 2.088638,1.711298c0.446272,0.400047 0.859335,0.796851 1.24078,1.188761c0.362948,0.372903 0.697441,0.741966 1.005843,1.104825c0.294038,0.345958 0.818033,1.017987 1.051675,1.34289c0.224182,0.31173 0.431759,0.62013 0.62039,0.928588c0.183578,0.300206 0.351695,0.603571 0.502909,0.911858c0.150069,0.305954 0.412863,0.942928 0.525763,1.276993c0.115688,0.34226 0.218331,0.704152 0.305913,1.088038c0.092237,0.404315 0.169263,0.839217 0.232497,1.306214c0.06774,0.500173 0.163661,1.624744 0.195926,2.253638c0.03438,0.670179 0.055143,1.378229 0.069732,2.118743c0.015136,0.768341 0.021933,1.560128 0.025717,2.370494c0.003859,0.824337 0.005701,2.496341 0.002987,3.335616c-0.002714,0.840185 -0.009634,1.682618 -0.042845,2.527099c-0.033385,0.849062 -0.089723,1.703786 -0.189652,2.560702c-0.101174,0.867613 -0.428522,2.625631 -0.671375,3.510117c-0.249525,0.908756 -0.564027,1.826048 -0.943431,2.74667c-0.394266,0.956699 -0.861725,1.923243 -1.398641,2.897726c-0.562185,1.020377 -1.906355,3.111805 -2.686473,4.184507c-0.816166,1.122238 -1.709533,2.250224 -2.674896,3.377413c-0.9982,1.165515 -2.067004,2.322295 -3.203522,3.461349c-1.164924,1.167535 -3.675711,3.438985 -5.017516,4.528388c-1.364385,1.107727 -2.787747,2.172348 -4.265654,3.187205c-1.497574,1.028344 -3.048051,2.003993 -4.647423,2.918724c-1.616001,0.924235 -4.976787,2.599625 -6.714053,3.344151c-1.750112,0.750046 -3.537019,1.427538 -5.349793,2.047412c-1.821362,0.622805 -3.666226,1.183184 -5.526026,1.695023c-1.862365,0.51255 -5.61194,1.406283 -7.490088,1.798478c-1.872273,0.390942 -3.743774,0.740429 -5.611691,1.048887c-1.858058,0.306836 -3.709917,0.572586 -5.552913,0.797164c-1.82913,0.222871 -5.449423,0.559412 -7.236953,0.671118c-1.771497,0.11071 -3.530995,0.179623 -5.278841,0.199995c-1.737789,0.020258 -3.468109,-0.00626 -5.190737,-0.085302c-1.718943,-0.078871 -5.148415,-0.377627 -6.859242,-0.600754c-1.711201,-0.223184 -3.414634,-0.500458 -5.105072,-0.829316c-1.682621,-0.327322 -3.346969,-0.704692 -4.987616,-1.1314c-1.624739,-0.422554 -4.787633,-1.387504 -6.317297,-1.936645c-1.518213,-0.545043 -3.02109,-1.151317 -4.507934,-1.846022c-1.512462,-0.706656 -3.034085,-1.513835 -4.566662,-2.433432c-1.594342,-0.956642 -4.903172,-3.249546 -6.633143,-4.589619c-1.809139,-1.401389 -3.639762,-2.926748 -5.483181,-4.547964c-1.878771,-1.652315 -3.740638,-3.380998 -5.571311,-5.16892c-1.825146,-1.782516 -5.301172,-5.41848 -6.921231,-7.251613c-1.58299,-1.791194 -3.086689,-3.600512 -4.509154,-5.433218c-1.401379,-1.805505 -2.732778,-3.644073 -3.995241,-5.517154c-1.255593,-1.862866 -3.610535,-5.712853 -4.716905,-7.703188c-1.110528,-1.997818 -2.167058,-4.043978 -3.164362,-6.13387c-0.999296,-2.094074 -1.938644,-4.229747 -2.811945,-6.402408c-0.873674,-2.173572 -2.439437,-6.610883 -3.125351,-8.867537c-0.685765,-2.256227 -1.299408,-4.542473 -1.844042,-6.852704c-0.545629,-2.314527 -1.021876,-4.656512 -1.432897,-7.020547c-0.41249,-2.372543 -1.063028,-7.185744 -1.309441,-9.621339c-0.247509,-2.44635 -0.436028,-4.909486 -0.584902,-7.382752c-0.149185,-2.47853 -0.254766,-4.963404 -0.335277,-7.449901c-0.080461,-2.484789 -0.181038,-7.441394 -0.209382,-9.906778c-0.028181,-2.451187 -0.038152,-4.884249 0.007344,-7.293239c0.044973,-2.381875 0.136762,-4.732737 0.315697,-7.041545c0.176134,-2.272531 0.762094,-6.673877 1.203126,-8.780016c0.433252,-2.068979 0.971463,-4.069899 1.591977,-5.994053c0.608565,-1.88708 1.297865,-3.696483 2.047162,-5.42343c0.731871,-1.6868 2.327657,-4.817982 3.172378,-6.257896c0.822365,-1.401816 1.685608,-2.726326 2.586817,-3.974582c0.888014,-1.229989 1.821188,-2.396016 2.792352,-3.504683c0.969546,-1.106817 3.031123,-3.201033 4.118697,-4.201607c1.097682,-1.009878 2.237113,-1.982283 3.417646,-2.907514c1.188326,-0.931348 2.41606,-1.814724 3.681984,-2.639004c1.271849,-0.828121 3.915178,-2.319251 5.282501,-2.971077c1.373945,-0.654985 2.78329,-1.239464 4.221589,-1.757932c1.449776,-0.522622 2.932264,-0.977897 4.441862,-1.371941c1.525258,-0.398113 4.659895,-1.029596 6.264694,-1.27264c1.622499,-0.245719 3.267777,-0.435941 4.930083,-0.588775c1.675078,-0.154015 3.363848,-0.266333 5.062252,-0.353826c1.705002,-0.087834 5.12825,-0.198558 6.841168,-0.2365c1.711126,-0.037899 3.419115,-0.062767 5.1222,-0.079725c1.696513,-0.016901 3.384909,-0.024996 5.063472,-0.029363c1.667161,-0.004339 4.96068,-0.006075 6.584473,-0.003571c1.609927,0.00249 3.208526,0.008621 4.797939,0.039151c1.583115,0.030402 3.16247,0.081489 4.739211,0.17342c1.578708,0.092045 4.748273,0.391412 6.341097,0.613174c1.602981,0.223184 3.209198,0.499718 4.816287,0.819514c1.613113,0.321005 3.223986,0.68671 4.830975,1.088066c1.608284,0.401698 4.803889,1.296484 6.390464,1.782316c1.59606,0.488735 3.20758,1.014772 4.848103,1.577541c1.688994,0.579414 3.43231,1.207142 5.244585,1.879597c1.899035,0.704635 5.994356,2.279303 8.212872,3.147912c2.321558,0.908927 4.72161,1.859907 7.180391,2.838971c2.497294,0.994399 5.010047,2.00092 7.51812,3.006814c2.482257,0.995538 7.283009,2.923362 9.563092,3.836585c2.189264,0.876832 4.287387,1.715566 6.293248,2.517339c1.912827,0.764586 3.731999,1.491329 5.45627,2.181681c1.629071,0.652254 4.597483,1.845368 5.938516,2.38805c1.263957,0.511497 2.470282,1.002309 3.640359,1.476818c1.153522,0.467794 2.310928,0.936185 3.493527,1.409726c1.226639,0.491182 3.896781,1.545731 5.374837,2.120763c1.564194,0.60855 3.197498,1.237586 4.881139,1.879597c1.713491,0.653392 3.439654,1.305304 5.160141,1.946746c1.693799,0.631483 4.931677,1.815635 6.443217,2.353991c1.437228,0.511896 2.812144,0.991184 4.132265,1.447483c1.273741,0.440251 2.511708,0.863146 3.72112,1.279639c1.191114,0.410177 3.553276,1.234001 4.737992,1.661733c1.187554,0.428756 2.368386,0.866105 3.532687,1.318819c1.146775,0.445885 2.264473,0.899054 3.341791,1.369124c1.040373,0.453937 2.958304,1.380875 3.818883,1.860647c0.815419,0.454592 1.577015,0.927535 2.296787,1.408332c0.699308,0.467111 1.371032,0.953001 2.032499,1.441849c0.662314,0.489475 2.009147,1.502909 2.714978,2.017593c0.721216,0.525866 1.456273,1.050992 2.195264,1.578935c0.736999,0.52652 1.467177,1.046098 2.180526,1.562148c0.69413,0.502136 1.992418,1.465266 2.58139,1.926829c0.555115,0.435016 1.070745,0.856972 1.546693,1.268458c0.447866,0.387215 0.860779,0.764529 1.23834,1.134188c0.355355,0.347922 0.977687,1.021117 1.247551,1.346475c0.254181,0.306437 0.481922,0.605619 0.690146,0.889437c0.193586,0.2639 0.366707,0.513062 0.528626,0.738437c0.147081,0.20469 0.406888,0.542397 0.529572,0.66335c0.107548,0.106015 0.213004,0.186025 0.314477,0.239146c0.091864,0.048085 0.183279,0.07486 0.270412,0.088119c0.083748,0.012747 0.248455,0.014881 0.332451,0.011637c0.098784,-0.003813 0.227344,-0.020429 0.398872,-0.058727c0.231825,-0.051756 0.535846,-0.138708 0.927548,-0.260116c0.496063,-0.153759 1.852855,-0.611566 2.740819,-0.919455c1.029668,-0.357027 2.193571,-0.765268 3.488673,-1.209731c1.417835,-0.486573 2.953922,-1.005923 4.604578,-1.545361c1.754817,-0.573496 5.56444,-1.763708 7.608689,-2.365202c2.12267,-0.624569 4.322266,-1.243305 6.591817,-1.848811c2.325666,-0.620472 4.70635,-1.223132 7.135082,-1.798506c2.462639,-0.583398 7.478089,-1.661477 10.016957,-2.14657c2.549424,-0.487113 5.114632,-0.932571 7.691889,-1.348154c2.584377,-0.416721 5.178712,-0.800806 7.779969,-1.16358c2.604493,-0.363229 7.823535,-1.034831 10.434501,-1.350658c2.609969,-0.315685 5.220188,-0.615578 7.831352,-0.889437c2.60982,-0.273717 5.220238,-0.523305 7.831402,-0.738437c2.609721,-0.21499 7.830854,-0.55099 10.44182,-0.662895c2.610019,-0.111848 5.220736,-0.181785 7.831352,-0.209755c2.610368,-0.027969 5.221134,-0.013999 7.831402,0.04194c2.610667,0.055938 7.832099,0.278354 10.44182,0.44799c2.611264,0.16975 5.222379,0.384313 7.831352,0.658712c2.61211,0.274741 5.223623,0.606928 7.831402,1.01113c2.613256,0.405055 7.835435,1.415872 10.443164,2.025503c2.62421,0.613501 5.258676,1.306812 7.917042,2.039047c2.695858,0.742563 5.427615,1.536341 8.210706,2.341102c2.840251,0.821264 8.722503,2.502459 11.779691,3.330181c3.110016,0.842006 6.254885,1.660481 9.409861,2.448796c3.134662,0.783251 6.232479,1.512896 9.263079,2.213861l2.940828,0.65527" fill="none" id="svg_9" stroke="#a51600" stroke-dasharray="null" stroke-linecap="null" stroke-linejoin="null" stroke-width="3"/>
 </g>
</svg>
