<svg width="640" height="480" xmlns="http://www.w3.org/2000/svg" xmlns:svg="http://www.w3.org/2000/svg">

 <g class="layer">
  <title>Layer 1</title>
  <path d="m178.426976,188.021043q43.36051,29.779201 86.619792,0m-77.222236,-58.814454c0,-4.60238 3.730961,-8.333341 8.333336,-8.333341c4.602375,0 8.333336,3.730961 8.333336,8.333341c0,4.602375 -3.730961,8.33333 -8.333336,8.33333c-4.602375,0 -8.333336,-3.730956 -8.333336,-8.33333m51.259263,0c0,-4.60238 3.730961,-8.333341 8.333336,-8.333341c4.602375,0 8.33333,3.730961 8.33333,8.333341c0,4.602375 -3.730956,8.33333 -8.33333,8.33333c-4.602364,0 -8.333336,-3.730956 -8.333336,-8.33333m-97.296297,23.925913l0,0c0,-44.182773 35.81722,-79.999998 79.999998,-79.999998c44.182783,0 79.999998,35.81722 79.999998,79.999998c0,44.182783 -35.817215,79.999998 -79.999998,79.999998c-44.182773,0 -79.999998,-35.817215 -79.999998,-79.999998zm0,0l0,0c0,-44.182773 35.81722,-79.999998 79.999998,-79.999998c44.182783,0 79.999998,35.81722 79.999998,79.999998c0,44.182783 -35.817215,79.999998 -79.999998,79.999998c-44.182773,0 -79.999998,-35.817215 -79.999998,-79.999998z" fill="none" id="svg_1" stroke="#000000" stroke-dasharray="null" stroke-linecap="null" stroke-linejoin="null" stroke-width="5"/>
 </g>
</svg>
